<svg width="25" height="14" viewBox="0 0 25 14" fill="none" xmlns="http://www.w3.org/2000/svg">
<path id="Vector Copy 12" d="M0.695237 7.69386C0.882774 7.88139 1.13713 7.98675 1.40234 7.98675H20.9883L16.6963 12.2787C16.5142 12.4674 16.4134 12.72 16.4157 12.9822C16.4179 13.2443 16.5231 13.4952 16.7085 13.6806C16.8939 13.866 17.1447 13.9711 17.4069 13.9734C17.6691 13.9757 17.9217 13.8749 18.1103 13.6927L24.1103 7.69275C24.2029 7.60075 24.2763 7.49137 24.3264 7.3709C24.3765 7.25042 24.4023 7.12123 24.4023 6.99075C24.4023 6.85675 24.3763 6.72675 24.3243 6.60475C24.2745 6.48351 24.2011 6.37338 24.1083 6.28075L18.1083 0.280748C17.9197 0.0985903 17.6671 -0.00220404 17.4049 7.43742e-05C17.1427 0.00235279 16.8919 0.107522 16.7065 0.29293C16.5211 0.478338 16.4159 0.729151 16.4137 0.991347C16.4114 1.25354 16.5122 1.50615 16.6943 1.69475L20.9883 5.98675H1.40234C1.13713 5.98675 0.882774 6.09211 0.695237 6.27964C0.507701 6.46718 0.402344 6.72153 0.402344 6.98675C0.402344 7.25197 0.507701 7.50632 0.695237 7.69386Z" fill="white"/>
</svg>
