<svg width="708" height="380" viewBox="0 0 708 380" xmlns="http://www.w3.org/2000/svg"><defs><filter id="a"><feColorMatrix in="SourceGraphic" values="0 0 0 0 0.12156863 0 0 0 0 0.15686275 0 0 0 0 0.30980393 0 0 0 1 0" color-interpolation-filters="sRGB"/></filter><filter filterUnits="userSpaceOnUse" color-interpolation-filters="sRGB" id="b"><feFlood flood-opacity="0" result="BackgroundImageFix"/><feBlend in="SourceGraphic" in2="BackgroundImageFix" result="shape"/><feGaussianBlur stdDeviation="19" result="effect0_gaussianBlur"/></filter></defs><g fill-rule="evenodd"><g transform="rotate(-90 329.5 12.5)" opacity=".1" filter="url(#a)" fill="#4D5055"><path d="M58.831 156.377a4.73 4.73 0 00-6.579-1.201 4.738 4.738 0 00-1.2 6.582 4.733 4.733 0 006.578 1.202 4.74 4.74 0 001.201-6.583c-1.483-2.146 1.482 2.147 0 0m-8.973 6.205a6.19 6.19 0 011.57-8.6 6.183 6.183 0 018.596 1.57 6.193 6.193 0 01-1.57 8.602 6.184 6.184 0 01-8.596-1.572c-1.937-2.804 1.937 2.804 0 0m31.565 164.336a4.732 4.732 0 004.727 4.729 4.732 4.732 0 004.727-4.729c0-2.61-2.12-4.73-4.727-4.73a4.732 4.732 0 00-4.727 4.73c0 2.609 0-2.61 0 0m10.904 0a6.186 6.186 0 01-6.177 6.18 6.185 6.185 0 01-6.177-6.18 6.186 6.186 0 016.177-6.181 6.187 6.187 0 016.177 6.181c0 3.408 0-3.408 0 0m-15.611 21.144L10.403 215.51v-52.214h20.961v41.056h34.917v1.463H29.902V164.76H11.865v50.405l66.158 132.243-1.307.654z"/><path d="M71.846 200.53a4.733 4.733 0 00-4.727 4.729c0 2.609 2.12 4.73 4.727 4.73a4.733 4.733 0 004.727-4.73 4.733 4.733 0 00-4.727-4.729c-2.608 0 2.608 0 0 0m0 10.909a6.186 6.186 0 01-6.177-6.18c0-3.408 2.772-6.181 6.177-6.181s6.177 2.773 6.177 6.181a6.186 6.186 0 01-6.177 6.18c-3.405 0 3.405 0 0 0M3.407 194.524H1.951v-44.193H41.1v38.084h33.514v-32.686l-26.227-40.002V95.636h1.457v19.652l26.227 40.002v34.588H39.644v-38.082H3.407v42.728z"/><path d="M43.713 90.106c0 2.609 2.12 4.73 4.726 4.73a4.733 4.733 0 004.727-4.73 4.732 4.732 0 00-4.727-4.73 4.732 4.732 0 00-4.726 4.73c0 2.609 0-2.608 0 0m10.903 0c0 3.407-2.772 6.18-6.177 6.18s-6.177-2.773-6.177-6.18c0-3.408 2.772-6.18 6.177-6.18s6.177 2.772 6.177 6.18c0 3.407 0-3.408 0 0"/><path d="M37.04 130.116H25.357V107.02h1.449v21.635h8.786V77.463l.166-.203 32.697-38.876 1.115.935L37.04 77.99v52.126z"/><path d="M68.207 31.134a4.738 4.738 0 00.62 6.663 4.732 4.732 0 006.657-.62 4.738 4.738 0 00-.618-6.662 4.73 4.73 0 00-6.66.619c-1.665 2.008 1.667-2.009 0 0m8.395 6.97a6.186 6.186 0 01-8.702.81 6.194 6.194 0 01-.808-8.707 6.186 6.186 0 018.702-.81 6.195 6.195 0 01.808 8.707c-2.176 2.624 2.177-2.623 0 0m19.126 318.741a4.733 4.733 0 004.727 4.729 4.733 4.733 0 004.727-4.729 4.732 4.732 0 00-4.727-4.73 4.733 4.733 0 00-4.727 4.73c0 2.607 0-2.609 0 0m10.904 0a6.186 6.186 0 01-6.177 6.18 6.185 6.185 0 01-6.176-6.18 6.185 6.185 0 016.176-6.181 6.186 6.186 0 016.177 6.181c0 3.408 0-3.409 0 0M20.79 130.116H0v-21.69l19.527-41.562 19.087-18.72 1.048 1.043-18.996 18.628L1.48 108.754v19.887h17.83V92.916h1.48v37.2z"/><path d="M38.593 42.52a4.738 4.738 0 000 6.693 4.731 4.731 0 006.688 0 4.738 4.738 0 000-6.693 4.731 4.731 0 00-6.688 0c-1.845 1.846 1.844-1.845 0 0m7.713 7.719a6.185 6.185 0 01-8.739 0 6.194 6.194 0 010-8.745 6.183 6.183 0 018.74 0 6.192 6.192 0 010 8.745c-2.41 2.41 2.41-2.41 0 0m29.115 176.814h-34.2l-4.974-11.247H22.757v-21.282h1.463v19.832h12.985l4.973 11.248h33.244v1.449z"/><path d="M80.3 221.998a4.733 4.733 0 00-4.728 4.731 4.733 4.733 0 004.727 4.729 4.732 4.732 0 004.726-4.729c0-2.61-2.12-4.731-4.726-4.731-2.608 0 2.607 0 0 0m0 10.91a6.186 6.186 0 01-6.177-6.179c0-3.409 2.772-6.182 6.177-6.182 3.406 0 6.176 2.773 6.176 6.182a6.185 6.185 0 01-6.176 6.179c-3.406 0 3.406 0 0 0m-2.921 70.914l-12.797-25.561-14.42-8.356-22.203-43.473 1.295-.68 22.006 43.089 14.418 8.354 12.996 25.949-1.295.678z"/><path d="M84.5 306.531a4.732 4.732 0 00-6.37-2.033 4.736 4.736 0 00-2.032 6.372 4.732 4.732 0 006.368 2.036 4.739 4.739 0 002.033-6.375c-1.195-2.317 1.196 2.319 0 0m-9.69 5.004c-1.562-3.028-.37-6.765 2.657-8.326a6.181 6.181 0 018.322 2.657 6.19 6.19 0 01-2.657 8.329 6.182 6.182 0 01-8.322-2.66c-1.562-3.028 1.561 3.03 0 0M138.49 391h-2.164v-92.393l-33.596-85.051 2.009-.816 33.751 85.442V391z"/><path d="M94.407 208.592c1.479 3.697 5.685 5.499 9.379 4.019 3.694-1.48 5.495-5.688 4.016-9.384a7.218 7.218 0 00-9.378-4.02c-3.694 1.48-5.496 5.689-4.017 9.385 1.479 3.697-1.48-3.696 0 0m15.45-6.188c1.931 4.828-.423 10.329-5.249 12.263-4.825 1.933-10.323-.423-12.256-5.252-1.932-4.828.423-10.33 5.248-12.263 4.826-1.934 10.325.423 12.257 5.252 1.931 4.828-1.932-4.829 0 0m76.979 172.982h-2.182v-77.113l33.736-85.533 2.024.818-33.578 85.14v76.688z"/><path d="M215.342 203.227c-1.478 3.696.323 7.904 4.017 9.384 3.694 1.48 7.9-.322 9.379-4.019 1.479-3.696-.323-7.905-4.017-9.385a7.22 7.22 0 00-9.379 4.02c-1.478 3.696 1.479-3.698 0 0m15.451 6.188c-1.933 4.829-7.431 7.185-12.256 5.252-4.826-1.934-7.182-7.435-5.249-12.263 1.932-4.829 7.431-7.186 12.257-5.252 4.825 1.933 7.179 7.435 5.248 12.263-1.933 4.829 1.931-4.828 0 0m-59.143 85.299h-21.456v-57.251h1.485v55.781h18.486V249.92h1.485v44.794z"/><path d="M165.298 244.944c0 2.609 2.12 4.73 4.726 4.73a4.733 4.733 0 004.728-4.73 4.731 4.731 0 00-4.728-4.728 4.731 4.731 0 00-4.726 4.728c0 2.609 0-2.609 0 0m10.904 0a6.187 6.187 0 01-6.178 6.181c-3.406 0-6.176-2.773-6.176-6.181 0-3.407 2.77-6.18 6.176-6.18a6.187 6.187 0 016.178 6.18c0 3.408 0-3.407 0 0m-74.774 72.54H99.94l.001-10.682-17.466-30.357-21.357-11.638.645-1.321 21.778 11.838.114.198 17.775 30.894-.002 11.068z"/><path d="M105.181 323.015a4.733 4.733 0 00-4.727-4.731 4.733 4.733 0 00-4.727 4.731 4.732 4.732 0 004.727 4.729 4.731 4.731 0 004.727-4.729c0-2.61 0 2.609 0 0m-10.903 0c0-3.409 2.771-6.181 6.176-6.181a6.185 6.185 0 016.177 6.181c0 3.408-2.77 6.18-6.177 6.18a6.186 6.186 0 01-6.176-6.18c0-3.409 0 3.408 0 0"/><path d="M117.034 338.303h-1.465v-35.532l-12.19-23.109h-9.955l-5.203-11.696-30.394-14.385-9.713-20.701 1.327-.622 9.49 20.226 30.409 14.391 5.038 11.323h9.886l12.77 24.212v35.893z"/><path d="M120.785 343.182c0-2.607-2.12-4.73-4.726-4.73a4.734 4.734 0 00-4.727 4.73 4.732 4.732 0 004.727 4.73 4.733 4.733 0 004.726-4.73c0-2.607 0 2.609 0 0m-10.903 0a6.186 6.186 0 016.177-6.18 6.186 6.186 0 016.177 6.18 6.186 6.186 0 01-6.177 6.181 6.186 6.186 0 01-6.177-6.181c0-3.408 0 3.409 0 0M40.312 178.26h12.353v-1.952H40.312v1.952z"/><path d="M58.192 172.554a4.733 4.733 0 00-4.727 4.73c0 2.608 2.12 4.73 4.727 4.73a4.733 4.733 0 004.726-4.73c0-2.609-2.12-4.73-4.726-4.73-2.608 0 2.606 0 0 0m0 10.91a6.186 6.186 0 01-6.177-6.18 6.186 6.186 0 016.177-6.181 6.186 6.186 0 016.177 6.181 6.186 6.186 0 01-6.177 6.18c-3.405 0 3.405 0 0 0m77.086-16.264H83.875v-1.461h51.053l5.502-2.443.661 1.304-5.813 2.6z"/><path d="M142.531 157.45a4.738 4.738 0 00-2.081 6.357 4.731 4.731 0 006.353 2.083 4.738 4.738 0 002.082-6.358 4.731 4.731 0 00-6.354-2.082c-2.325 1.179 2.327-1.178 0 0m4.927 9.734a6.183 6.183 0 01-8.302-2.722 6.19 6.19 0 012.721-8.307 6.181 6.181 0 018.301 2.722 6.19 6.19 0 01-2.72 8.307c-3.038 1.54 3.039-1.54 0 0m88.561.016h-51.821l-4.746-2.6.668-1.304 4.43 2.443h51.469v1.461z"/><path d="M172.44 165.89a4.73 4.73 0 006.353-2.083 4.735 4.735 0 00-2.081-6.357 4.73 4.73 0 00-4.272 8.44c2.326 1.179-2.326-1.179 0 0m4.928-9.735c3.038 1.54 4.258 5.267 2.719 8.308a6.184 6.184 0 01-8.303 2.721c-3.038-1.539-4.258-5.267-2.719-8.307a6.184 6.184 0 018.303-2.722c3.038 1.54-3.04-1.54 0 0m-27.303 74.151l-10.274-35.3v-8.939h1.486v8.836l10.217 35-1.429.403z"/><path d="M135.389 180.537a4.733 4.733 0 004.728 4.728 4.732 4.732 0 004.726-4.728c0-2.61-2.12-4.73-4.726-4.73a4.733 4.733 0 00-4.728 4.73c0 2.607 0-2.61 0 0m10.904 0c0 3.407-2.771 6.18-6.176 6.18a6.186 6.186 0 01-6.178-6.18 6.186 6.186 0 016.178-6.181c3.405 0 6.176 2.773 6.176 6.181 0 3.407 0-3.408 0 0m24.836 49.769l-1.429-.403 10.217-35v-8.836h1.486l-.029 9.141-10.245 35.098z"/><path d="M175.701 180.537a4.733 4.733 0 004.727 4.728 4.733 4.733 0 004.727-4.728c0-2.61-2.12-4.73-4.727-4.73a4.732 4.732 0 00-4.727 4.73c0 2.607 0-2.61 0 0m10.904 0a6.187 6.187 0 01-6.177 6.18 6.185 6.185 0 01-6.177-6.18 6.186 6.186 0 016.177-6.181c3.405 0 6.177 2.773 6.177 6.181 0 3.407 0-3.408 0 0m-57.867 184.44h-1.461v-64.606l-24.123-43.998-28.308-8.916-4.626-12.069 1.365-.528 4.372 11.41 28.193 8.879.142.257 24.446 44.586v64.985z"/><path d="M132.489 369.855a4.731 4.731 0 00-4.727-4.729 4.732 4.732 0 00-4.727 4.729c0 2.61 2.12 4.73 4.727 4.73a4.732 4.732 0 004.727-4.73c0-2.609 0 2.61 0 0m-10.903 0a6.185 6.185 0 016.176-6.179 6.184 6.184 0 016.177 6.179c0 3.409-2.77 6.182-6.177 6.182-3.405 0-6.176-2.773-6.176-6.182 0-3.407 0 3.409 0 0m30.093-26.347h-1.485v-35.783h21.456v24.402h-1.485v-22.942h-18.486v34.323z"/><path d="M174.752 337.327c0-2.61-2.12-4.73-4.728-4.73a4.732 4.732 0 00-4.726 4.73c0 2.61 2.12 4.73 4.726 4.73a4.733 4.733 0 004.728-4.73c0-2.61 0 2.61 0 0m-10.904 0c0-3.408 2.772-6.181 6.176-6.181a6.186 6.186 0 016.178 6.181 6.185 6.185 0 01-6.178 6.18c-3.404 0-6.176-2.772-6.176-6.18s0 3.408 0 0m7.802 51.721h-21.456V364.46h1.485v23.128h18.486v-34.322h1.485v35.782z"/><path d="M145.792 359.446c0 2.61 2.12 4.729 4.728 4.729a4.731 4.731 0 004.726-4.729 4.732 4.732 0 00-4.726-4.729 4.732 4.732 0 00-4.728 4.729c0 2.61 0-2.609 0 0m10.904 0c0 3.408-2.771 6.181-6.176 6.181a6.186 6.186 0 01-6.178-6.181 6.185 6.185 0 016.178-6.18 6.185 6.185 0 016.176 6.18c0 3.408 0-3.408 0 0m91.826 1.952c0 2.609 2.12 4.73 4.728 4.73a4.733 4.733 0 004.726-4.73c0-2.61-2.12-4.729-4.726-4.729a4.732 4.732 0 00-4.728 4.729c0 2.609 0-2.61 0 0m10.904 0c0 3.409-2.772 6.181-6.176 6.181a6.186 6.186 0 01-6.178-6.181 6.185 6.185 0 016.178-6.18c3.404 0 6.176 2.772 6.176 6.18 0 3.409 0-3.408 0 0m-3.803-64.11a4.735 4.735 0 001.824 6.435 4.728 4.728 0 006.432-1.825 4.738 4.738 0 00-1.823-6.436 4.732 4.732 0 00-6.433 1.826c-1.27 2.279 1.271-2.278 0 0m9.523 5.318a6.184 6.184 0 01-8.406 2.385c-2.974-1.66-4.044-5.434-2.384-8.41a6.185 6.185 0 018.406-2.386 6.192 6.192 0 012.384 8.411c-1.661 2.976 1.66-2.977 0 0m-21.826 29.191h-1.449v-45.186l16.534-25.267-2.414-9.315 12.064-18.47h1.774v1.471h-.989l-11.284 17.256 2.417 9.323-16.653 25.446v44.742z"/><path d="M272.105 225.251a4.733 4.733 0 00-4.727 4.731 4.732 4.732 0 004.727 4.729 4.733 4.733 0 004.727-4.729c0-2.61-2.12-4.731-4.727-4.731-2.608 0 2.607 0 0 0m0 10.91a6.186 6.186 0 01-6.177-6.179c0-3.409 2.772-6.182 6.177-6.182 3.406 0 6.176 2.773 6.176 6.182a6.185 6.185 0 01-6.176 6.179c-3.405 0 3.406 0 0 0m-57.918 153.538h-30.183v-10.346h1.463v8.885h27.256v-33.452l.092-.163 11.517-20.798v-56.087l10.448-16.854 1.239.777-10.223 16.498v56.045l-.092.164-11.517 20.797v34.534z"/><path d="M234.289 254.792a4.736 4.736 0 001.494 6.521 4.73 4.73 0 006.517-1.495 4.738 4.738 0 00-1.494-6.521 4.73 4.73 0 00-6.517 1.495c-1.385 2.21 1.385-2.21 0 0m9.24 5.798a6.183 6.183 0 01-8.516 1.953 6.19 6.19 0 01-1.952-8.522 6.183 6.183 0 018.516-1.954c2.886 1.81 3.762 5.635 1.952 8.523s1.81-2.888 0 0m-43.933 104.387h-9.74v-56.295h1.46v54.844h6.82v-21.725l14.316-20.847v-22.337h1.461V321.4l-14.317 20.847v22.73z"/><path d="M208.211 292.437c0 2.609 2.12 4.73 4.726 4.73a4.732 4.732 0 004.727-4.73 4.732 4.732 0 00-4.727-4.73 4.733 4.733 0 00-4.726 4.73c0 2.609 0-2.609 0 0m10.903 0a6.185 6.185 0 01-6.177 6.18 6.186 6.186 0 01-6.177-6.18c0-3.407 2.772-6.181 6.177-6.181 3.406 0 6.177 2.774 6.177 6.181 0 3.408 0-3.407 0 0m23.995 13.987l-1.238-.792 56.628-88.988 1.239.79-56.629 88.99z"/><path d="M296.728 209.869a4.735 4.735 0 001.44 6.533 4.73 4.73 0 006.53-1.44 4.74 4.74 0 00-1.439-6.535 4.734 4.734 0 00-6.531 1.442c-1.404 2.2 1.404-2.199 0 0m9.192 5.873a6.183 6.183 0 01-8.532 1.884 6.192 6.192 0 01-1.883-8.537 6.185 6.185 0 018.534-1.885 6.193 6.193 0 011.881 8.538c-1.832 2.872 1.834-2.872 0 0m6.229 19.164a4.737 4.737 0 001.939 6.403 4.73 4.73 0 004.46-8.343 4.732 4.732 0 00-6.399 1.94c-1.23 2.301 1.231-2.3 0 0m9.616 5.147a6.184 6.184 0 01-8.362 2.535c-3.003-1.607-4.139-5.362-2.533-8.367a6.184 6.184 0 018.362-2.534 6.19 6.19 0 012.533 8.366c-1.606 3.006 1.606-3.004 0 0m-51.756 72.877h-1.48v-13.914l.096-.167 46.537-80.969v-15.549h1.481v15.933l-.097.168-46.537 80.97v13.528z"/><path d="M310.291 196.801c0 2.609 2.12 4.73 4.726 4.73a4.732 4.732 0 004.727-4.73 4.732 4.732 0 00-4.727-4.729 4.733 4.733 0 00-4.726 4.729c0 2.609 0-2.608 0 0m10.903 0c0 3.408-2.772 6.181-6.177 6.181s-6.177-2.773-6.177-6.181a6.187 6.187 0 016.177-6.18 6.187 6.187 0 016.177 6.18c0 3.408 0-3.407 0 0M219.902 290.81h-1.438v-35.418l22.852-36.146 1.205.798-22.619 35.781v34.985z"/><path d="M240.833 213.09a4.735 4.735 0 001.387 6.544 4.728 4.728 0 005.153-7.932 4.729 4.729 0 00-6.54 1.388c-1.422 2.187 1.422-2.188 0 0m9.144 5.947a6.184 6.184 0 01-8.548 1.814 6.19 6.19 0 01-1.813-8.552 6.184 6.184 0 018.548-1.814 6.191 6.191 0 011.813 8.552c-1.856 2.858 1.857-2.857 0 0"/><path d="M251.083 230.957h-15.064v-1.464h14.255l39.542-62.944h18.374v1.464h-17.564l-39.543 62.944z"/><path d="M313.067 161.495a4.734 4.734 0 00-4.728 4.729 4.734 4.734 0 004.728 4.73 4.733 4.733 0 004.727-4.73 4.733 4.733 0 00-4.727-4.729c-2.607 0 2.607 0 0 0m0 10.909a6.186 6.186 0 01-6.177-6.18c0-3.408 2.771-6.181 6.177-6.181 3.405 0 6.176 2.773 6.176 6.181 0 3.407-2.771 6.18-6.176 6.18-3.406 0 3.405 0 0 0m17.88-18.216h-1.464v-11.004h-50.551v-23.477h28.8v1.468h-27.337v20.542h50.552v12.471z"/><path d="M301.688 153.537h-32.509v-51.053l30.235-21.812.838 1.183-29.635 21.378v48.85h31.071v1.454z"/><path d="M300.56 74.549a4.737 4.737 0 00-1.09 6.602 4.733 4.733 0 006.598 1.09 4.74 4.74 0 001.09-6.601 4.731 4.731 0 00-6.598-1.091c-2.121 1.52 2.119-1.52 0 0m6.353 8.872a6.184 6.184 0 01-8.622-1.425 6.192 6.192 0 011.424-8.627 6.184 6.184 0 018.621 1.424 6.193 6.193 0 01-1.423 8.628c-2.769 1.985 2.77-1.986 0 0m-64.337 111.103l-1.355-.593 18.308-40.827v-19.008l-9.185-7.319v-29.12l23.793-17.635.893 1.167-23.204 17.196v27.692l9.185 7.319-.064 20.16-18.371 40.968z"/><path d="M275.755 73.97a4.73 4.73 0 005.703 7.548 4.739 4.739 0 00.921-6.627 4.732 4.732 0 00-6.624-.92c-2.081 1.573 2.081-1.575 0 0m6.577 8.706a6.182 6.182 0 01-8.654-1.204 6.192 6.192 0 011.201-8.66 6.184 6.184 0 018.656 1.203 6.19 6.19 0 01-1.203 8.66c-2.717 2.057 2.719-2.055 0 0m-30.708 72.163H204.81v-64.52l.212-.214 42.535-43.263 1.027 1.04-42.324 43.047v62.439h45.364v1.471z"/><path d="M248.604 40.569a4.74 4.74 0 000 6.692 4.731 4.731 0 006.688 0 4.738 4.738 0 000-6.692 4.731 4.731 0 00-6.688 0c-1.844 1.845 1.845-1.846 0 0m7.714 7.718a6.185 6.185 0 01-8.739 0 6.194 6.194 0 010-8.745 6.184 6.184 0 018.74 0 6.193 6.193 0 01-.001 8.745c-2.409 2.41 2.41-2.412 0 0m3.758 95.492h-29.909V95.86l23.297-19.742.928 1.128-22.774 19.302v45.763h28.458v1.468z"/><path d="M255.424 70.205a4.738 4.738 0 00-.607 6.664 4.733 4.733 0 006.66.607 4.737 4.737 0 00.608-6.663 4.733 4.733 0 00-6.661-.608c-2.004 1.67 2.005-1.67 0 0m6.981 8.388a6.182 6.182 0 01-8.702-.796 6.19 6.19 0 01.793-8.708 6.185 6.185 0 018.703.795 6.194 6.194 0 01-.794 8.709c-2.618 2.181 2.618-2.183 0 0m-45.066 35.909h-1.476V100.84h14.954v1.476h-13.478v12.186z"/><path d="M220.915 120.032c0-2.609-2.12-4.73-4.726-4.73a4.733 4.733 0 00-4.728 4.73c0 2.61 2.12 4.73 4.728 4.73a4.732 4.732 0 004.726-4.73c0-2.609 0 2.61 0 0m-10.904 0a6.187 6.187 0 016.178-6.18c3.406 0 6.176 2.773 6.176 6.18 0 3.408-2.77 6.181-6.176 6.181a6.187 6.187 0 01-6.178-6.181c0-3.407 0 3.408 0 0m-87.775 34.807H75.422v-1.464h45.364V91.242l-16.16-16.04 1.026-1.036 16.584 16.47v64.203z"/><path d="M98.41 73.934a4.732 4.732 0 006.689 0 4.739 4.739 0 000-6.691 4.732 4.732 0 00-6.688 0 4.738 4.738 0 000 6.691c1.844 1.846-1.844-1.845 0 0m7.713-7.718a6.19 6.19 0 010 8.744 6.182 6.182 0 01-8.739 0 6.192 6.192 0 010-8.745 6.183 6.183 0 018.739.001c2.41 2.41-2.409-2.411 0 0m-9.896 76.912H66.32v-1.451h28.458v-45.25L72.144 77.884l.929-1.115 23.155 18.978v47.381z"/><path d="M66.22 77.478a4.732 4.732 0 006.66-.61 4.738 4.738 0 00-.609-6.663 4.733 4.733 0 00-6.66.608 4.74 4.74 0 00.608 6.665c2.005 1.67-2.004-1.67 0 0m6.98-8.388a6.193 6.193 0 01.795 8.708 6.185 6.185 0 01-8.704.795 6.192 6.192 0 01-.793-8.708 6.182 6.182 0 018.703-.795c2.618 2.181-2.62-2.183 0 0m37.983 45.412h-1.476v-12.186H96.228v-1.476h14.955v13.662z"/><path d="M114.934 120.032c0-2.609-2.12-4.73-4.727-4.73a4.733 4.733 0 00-4.727 4.73c0 2.61 2.12 4.73 4.727 4.73a4.732 4.732 0 004.727-4.73c0-2.609 0 2.61 0 0m-10.904 0a6.187 6.187 0 016.177-6.18 6.185 6.185 0 016.177 6.18 6.186 6.186 0 01-6.177 6.181c-3.405 0-6.177-2.773-6.177-6.181 0-3.407 0 3.408 0 0m58.518 143.454h-1.478V102.334l-58.34-52.952v-14.25h1.478v13.607l58.34 52.951v161.796z"/><path d="M98.98 29.6a4.733 4.733 0 004.725 4.731 4.733 4.733 0 004.727-4.73 4.732 4.732 0 00-4.727-4.73 4.732 4.732 0 00-4.725 4.73c0 2.608 0-2.608 0 0m10.902 0c0 3.408-2.771 6.181-6.177 6.181-3.405 0-6.177-2.773-6.177-6.181a6.186 6.186 0 016.177-6.18 6.185 6.185 0 016.177 6.18c0 3.408 0-3.408 0 0m51.757 105.07l-1.042-1.034 16.601-16.481V60.863l.156-.2 17.844-22.93 1.159.903-17.686 22.732v56.393l-17.032 16.91z"/><path d="M194.912 31.236a4.74 4.74 0 00.803 6.644 4.73 4.73 0 006.639-.805 4.737 4.737 0 00-.804-6.643 4.73 4.73 0 00-6.638.804c-1.609 2.053 1.609-2.053 0 0m8.583 6.735a6.183 6.183 0 01-8.675 1.05 6.192 6.192 0 01-1.05-8.68c2.103-2.683 5.996-3.155 8.675-1.051a6.191 6.191 0 011.05 8.681c-2.102 2.683 2.103-2.682 0 0m-57.202 49.858h-1.475V74.624l-17.381-18.036V44.89h1.477v11.111l17.379 18.035V87.83z"/><path d="M123.035 39.36a4.733 4.733 0 004.727 4.729 4.732 4.732 0 004.727-4.729 4.732 4.732 0 00-4.727-4.73 4.733 4.733 0 00-4.727 4.73c0 2.608 0-2.609 0 0m10.904 0a6.186 6.186 0 01-6.177 6.18 6.184 6.184 0 01-6.176-6.18c0-3.407 2.77-6.18 6.176-6.18a6.187 6.187 0 016.177 6.18c0 3.408 0-3.407 0 0m27.506 75.143l-.998-1.053 7.806-7.492V76.615l-8.956-6.376V50.917l7.659-13.183 1.243.744-7.456 12.84v18.168l8.957 6.376v30.719l-8.255 7.922z"/><path d="M165.962 31.736a4.737 4.737 0 001.645 6.485 4.73 4.73 0 004.836-8.131 4.731 4.731 0 00-6.481 1.646c-1.334 2.242 1.334-2.242 0 0m9.372 5.582a6.186 6.186 0 01-8.47 2.15 6.192 6.192 0 01-2.149-8.474 6.184 6.184 0 018.469-2.151 6.193 6.193 0 012.15 8.475c-1.742 2.928 1.742-2.93 0 0m-22.539 58.318h1.95V11.71h-1.95v83.925z"/><path d="M149.043 6.18c0 2.608 2.12 4.73 4.728 4.73a4.733 4.733 0 004.726-4.73 4.731 4.731 0 00-4.726-4.728 4.732 4.732 0 00-4.728 4.729c0 2.607 0-2.61 0 0m10.904 0c0 3.407-2.772 6.18-6.176 6.18a6.186 6.186 0 01-6.178-6.18A6.186 6.186 0 01153.771 0c3.404 0 6.176 2.773 6.176 6.18 0 3.408 0-3.407 0 0m.79 144.105l-20.946-27.748V111.9h1.459v10.137l20.647 27.351-1.16.897z"/><path d="M144.843 108.322c0 2.609-2.12 4.73-4.728 4.73a4.733 4.733 0 01-4.726-4.73 4.733 4.733 0 014.726-4.729 4.733 4.733 0 014.728 4.729c0 2.609 0-2.608 0 0m-10.904 0c0 3.407 2.771 6.181 6.176 6.181a6.187 6.187 0 006.178-6.181 6.187 6.187 0 00-6.178-6.181c-3.405 0-6.176 2.774-6.176 6.181s0-3.407 0 0m36.711 31.553l-.95-1.106 14.848-12.908V68.91l14.171-3.369 24.427-33.662 1.17.872-24.746 34.09-13.568 3.224v56.465l-15.352 13.345z"/><path d="M222.795 25.479a4.738 4.738 0 00.975 6.618 4.732 4.732 0 006.617-.975 4.736 4.736 0 00-.975-6.62 4.732 4.732 0 00-6.617.977c-1.555 2.094 1.557-2.095 0 0m8.757 6.508a6.184 6.184 0 01-8.646 1.276 6.19 6.19 0 01-1.274-8.65 6.184 6.184 0 018.645-1.276 6.194 6.194 0 011.275 8.65c-2.033 2.737 2.031-2.736 0 0M87.968 88.48l-1.493-.634v-68.19l25.367-11.849.641 1.323-24.515 11.451V88.48z"/><path d="M114.03 3.21a4.735 4.735 0 00-2.24 6.301 4.731 4.731 0 006.298 2.243 4.729 4.729 0 00-4.058-8.544c-2.355 1.12 2.355-1.12 0 0m4.68 9.854c-3.075 1.464-6.768.149-8.231-2.929a6.192 6.192 0 012.929-8.236 6.182 6.182 0 018.23 2.93 6.189 6.189 0 01-2.928 8.235c-3.075 1.464 3.077-1.462 0 0m22.286 210.086l-10.988-29.85-13.624-5.241.576-1.342 14.22 5.487 11.212 30.45-1.396.496z"/><path d="M110.973 190.75a4.728 4.728 0 10-2.522-6.193 4.735 4.735 0 002.522 6.193c2.403 1.013-2.402-1.012 0 0m4.232-10.054a6.19 6.19 0 013.296 8.095 6.186 6.186 0 01-8.091 3.298 6.19 6.19 0 01-3.294-8.097 6.182 6.182 0 018.089-3.296c3.138 1.323-3.138-1.323 0 0m64.331 42.454l-1.384-.496 11.119-30.45 13.667-5.487.571 1.342-13.075 5.241-10.898 29.85z"/><path d="M205.901 182.033a4.735 4.735 0 00-2.522 6.194 4.73 4.73 0 006.191 2.524 4.737 4.737 0 002.523-6.195 4.732 4.732 0 00-6.192-2.523c-2.403 1.013 2.402-1.013 0 0m4.232 10.055a6.182 6.182 0 01-8.09-3.297 6.189 6.189 0 013.295-8.095 6.184 6.184 0 018.091 3.296c1.321 3.141-.156 6.773-3.296 8.096-3.139 1.323 3.14-1.323 0 0m66.848-143.294h-1.475V36.96l-32.985-20.766.794-1.232 33.666 21.198v12.633z"/><path d="M235.747 16.672a4.733 4.733 0 006.532-1.437 4.738 4.738 0 00-1.436-6.534 4.732 4.732 0 00-6.531 1.437 4.735 4.735 0 001.435 6.534c2.198 1.405-2.197-1.406 0 0m5.877-9.193a6.19 6.19 0 011.875 8.539 6.182 6.182 0 01-8.533 1.876 6.191 6.191 0 01-1.877-8.538c1.837-2.872 5.666-3.715 8.535-1.877 2.87 1.836-2.869-1.838 0 0M184.14 35.131h-1.437V8.458h14.955V9.92H184.14v25.21z"/><path d="M203.185 4.704a4.733 4.733 0 00-4.728 4.73c0 2.608 2.12 4.73 4.728 4.73a4.732 4.732 0 004.726-4.73c0-2.61-2.119-4.73-4.726-4.73-2.608 0 2.607 0 0 0m0 10.91a6.186 6.186 0 01-6.177-6.18 6.186 6.186 0 016.177-6.181c3.406 0 6.176 2.772 6.176 6.181 0 3.407-2.77 6.18-6.176 6.18s3.406 0 0 0M137.84 256.98h-.668v-24.736l-11.035-23.789.609-.269 11.094 23.987v24.807z"/><path d="M134.702 258.281a2.491 2.491 0 002.488 2.49 2.492 2.492 0 002.488-2.49 2.49 2.49 0 00-2.488-2.488 2.49 2.49 0 00-2.488 2.488c0 1.374 0-1.373 0 0m5.739 0a3.255 3.255 0 01-3.251 3.253 3.255 3.255 0 01-3.251-3.253 3.256 3.256 0 013.251-3.253 3.256 3.256 0 013.251 3.253c0 1.794 0-1.793 0 0m-81.811-22.12a2.491 2.491 0 002.488 2.49 2.49 2.49 0 000-4.979 2.49 2.49 0 00-2.488 2.489c0 1.374 0-1.373 0 0m5.739 0a3.255 3.255 0 01-3.251 3.253 3.254 3.254 0 01-3.251-3.253 3.256 3.256 0 013.25-3.253 3.257 3.257 0 013.252 3.253c0 1.795 0-1.792 0 0m10.515 126.864a2.491 2.491 0 002.487 2.49 2.492 2.492 0 002.489-2.49 2.492 2.492 0 00-2.489-2.49 2.491 2.491 0 00-2.487 2.49c0 1.373 0-1.373 0 0m5.74 0a3.257 3.257 0 01-3.253 3.253 3.255 3.255 0 01-3.25-3.253 3.255 3.255 0 013.25-3.253 3.257 3.257 0 013.253 3.253c0 1.793 0-1.793 0 0m47.576-122.96a2.492 2.492 0 002.487 2.49 2.491 2.491 0 000-4.98 2.49 2.49 0 00-2.487 2.49c0 1.373 0-1.374 0 0m5.739 0a3.257 3.257 0 01-3.252 3.253 3.256 3.256 0 01-3.25-3.253 3.255 3.255 0 013.25-3.253 3.256 3.256 0 013.252 3.253c0 1.793 0-1.794 0 0M58.63 93.033a2.49 2.49 0 002.486 2.49 2.49 2.49 0 000-4.978 2.49 2.49 0 00-2.486 2.488c0 1.374 0-1.373 0 0m5.739 0a3.256 3.256 0 01-3.252 3.253 3.255 3.255 0 01-3.25-3.253 3.255 3.255 0 013.25-3.253 3.257 3.257 0 013.252 3.253c0 1.794 0-1.793 0 0m9.215-1.951a2.491 2.491 0 002.488 2.49 2.492 2.492 0 002.489-2.49 2.492 2.492 0 00-2.489-2.49 2.491 2.491 0 00-2.488 2.49c0 1.373 0-1.374 0 0m5.74 0a3.256 3.256 0 01-3.252 3.252 3.255 3.255 0 01-3.25-3.252 3.255 3.255 0 013.25-3.253 3.256 3.256 0 013.251 3.253c0 1.794 0-1.795 0 0m2.063 1.951a2.491 2.491 0 002.489 2.49 2.491 2.491 0 002.488-2.49 2.491 2.491 0 00-2.489-2.49 2.491 2.491 0 00-2.488 2.49c0 1.374 0-1.373 0 0m5.74 0a3.255 3.255 0 01-3.252 3.253 3.256 3.256 0 01-3.25-3.253 3.257 3.257 0 013.25-3.253 3.256 3.256 0 013.252 3.253c0 1.794 0-1.793 0 0m-1.839 21.469a2.49 2.49 0 002.487 2.49 2.49 2.49 0 000-4.979 2.49 2.49 0 00-2.487 2.489c0 1.374 0-1.373 0 0m5.74 0a3.256 3.256 0 01-3.253 3.253 3.254 3.254 0 01-3.25-3.253 3.255 3.255 0 013.25-3.252 3.257 3.257 0 013.253 3.252c0 1.795 0-1.792 0 0m-23.523 4.229c0 .962.781 1.743 1.741 1.743a1.743 1.743 0 000-3.485c-.96 0-1.74.78-1.74 1.742s0-.962 0 0m4.016 0a2.28 2.28 0 01-2.276 2.277 2.28 2.28 0 01-2.275-2.277 2.28 2.28 0 012.275-2.277 2.28 2.28 0 012.276 2.277c0 1.255 0-1.255 0 0m-6.618 42.288a1.742 1.742 0 103.484 0 1.742 1.742 0 00-3.484 0c0 .962 0-.96 0 0m4.017 0a2.28 2.28 0 01-2.276 2.277 2.279 2.279 0 01-2.275-2.277 2.279 2.279 0 012.275-2.277 2.28 2.28 0 012.276 2.277c0 1.255 0-1.255 0 0m55.151 45.541c0 .96.781 1.742 1.741 1.742a1.743 1.743 0 000-3.484c-.96 0-1.741.78-1.741 1.742 0 .96 0-.962 0 0m4.016 0a2.28 2.28 0 01-2.275 2.277 2.28 2.28 0 01-2.276-2.277 2.28 2.28 0 012.276-2.277 2.28 2.28 0 012.275 2.277c0 1.255 0-1.255 0 0M4.436 170.127c0 .962.78 1.743 1.74 1.743a1.744 1.744 0 000-3.485c-.96 0-1.74.782-1.74 1.742 0 .962 0-.96 0 0m4.016 0a2.278 2.278 0 01-2.275 2.277 2.278 2.278 0 010-4.554 2.28 2.28 0 012.275 2.277c0 1.257 0-1.255 0 0m23.942 18.216c0 .962.781 1.743 1.741 1.743a1.744 1.744 0 000-3.486c-.96 0-1.741.782-1.741 1.743 0 .962 0-.961 0 0m4.017 0a2.28 2.28 0 01-2.276 2.278 2.278 2.278 0 010-4.554 2.278 2.278 0 012.276 2.276c0 1.255 0-1.256 0 0m-10.519-11.059c0 .96.781 1.742 1.741 1.742.961 0 1.743-.782 1.743-1.742 0-.962-.782-1.743-1.743-1.743-.96 0-1.741.781-1.741 1.743 0 .96 0-.962 0 0m4.017 0a2.28 2.28 0 01-2.276 2.277 2.28 2.28 0 01-2.276-2.277 2.28 2.28 0 012.276-2.277 2.28 2.28 0 012.276 2.277c0 1.255 0-1.255 0 0m-7.268 53.998c0 .961.781 1.742 1.741 1.742a1.743 1.743 0 000-3.484c-.96 0-1.741.78-1.741 1.742 0 .961 0-.962 0 0m4.017 0a2.28 2.28 0 01-2.276 2.277 2.28 2.28 0 01-2.276-2.277 2.28 2.28 0 012.276-2.277 2.28 2.28 0 012.276 2.277c0 1.255 0-1.255 0 0m-.766 7.156c0 .961.781 1.743 1.741 1.743a1.743 1.743 0 000-3.485c-.96 0-1.741.781-1.741 1.742s0-.961 0 0m4.017 0a2.279 2.279 0 01-2.276 2.277 2.279 2.279 0 01-2.276-2.277 2.28 2.28 0 012.276-2.277 2.28 2.28 0 012.276 2.277c0 1.256 0-1.255 0 0m37.595-17.565c0 .96.781 1.742 1.741 1.742.96 0 1.743-.782 1.743-1.742 0-.962-.783-1.743-1.743-1.743-.96 0-1.74.781-1.74 1.743 0 .96 0-.962 0 0m4.016 0a2.28 2.28 0 01-2.276 2.277 2.28 2.28 0 01-2.275-2.277 2.28 2.28 0 012.275-2.277 2.28 2.28 0 012.276 2.277c0 1.255 0-1.255 0 0m117.797.325a2.49 2.49 0 002.487 2.49 2.492 2.492 0 002.488-2.49 2.492 2.492 0 00-2.488-2.49 2.49 2.49 0 00-2.487 2.49c0 1.373 0-1.373 0 0m5.739 0a3.257 3.257 0 01-3.252 3.253 3.256 3.256 0 01-3.25-3.253 3.255 3.255 0 013.25-3.253 3.256 3.256 0 013.252 3.253c0 1.793 0-1.794 0 0m1.413-17.566a2.491 2.491 0 002.488 2.49 2.49 2.49 0 000-4.979 2.49 2.49 0 00-2.488 2.489c0 1.374 0-1.373 0 0m5.739 0a3.255 3.255 0 01-3.251 3.253 3.255 3.255 0 01-3.251-3.253 3.256 3.256 0 013.251-3.253 3.256 3.256 0 013.251 3.253c0 1.795 0-1.793 0 0m42.375-35.782a2.49 2.49 0 002.488 2.489 2.49 2.49 0 002.488-2.489 2.492 2.492 0 00-2.488-2.489 2.49 2.49 0 00-2.488 2.489c0 1.374 0-1.373 0 0m5.739 0a3.257 3.257 0 01-3.251 3.253 3.257 3.257 0 01-3.251-3.253 3.256 3.256 0 013.251-3.253 3.256 3.256 0 013.251 3.253c0 1.793 0-1.794 0 0m42.375-6.506a2.491 2.491 0 002.488 2.49 2.491 2.491 0 002.489-2.49 2.491 2.491 0 00-2.489-2.489 2.49 2.49 0 00-2.488 2.489c0 1.374 0-1.373 0 0m5.739 0a3.255 3.255 0 01-3.251 3.253 3.255 3.255 0 01-3.251-3.253 3.254 3.254 0 013.251-3.252 3.255 3.255 0 013.251 3.252c0 1.795 0-1.794 0 0m-39.549 37.084a2.49 2.49 0 002.488 2.489 2.491 2.491 0 002.489-2.489 2.492 2.492 0 00-2.489-2.489 2.492 2.492 0 00-2.488 2.489c0 1.373 0-1.372 0 0m5.739 0a3.255 3.255 0 01-3.251 3.253 3.255 3.255 0 01-3.251-3.253 3.256 3.256 0 013.251-3.253 3.255 3.255 0 013.251 3.253c0 1.794 0-1.793 0 0m4.014-23.421a2.49 2.49 0 002.488 2.489 2.491 2.491 0 002.489-2.489 2.49 2.49 0 00-2.489-2.489 2.49 2.49 0 00-2.488 2.489c0 1.373 0-1.374 0 0m5.739 0a3.255 3.255 0 01-3.251 3.253 3.255 3.255 0 01-3.251-3.253 3.256 3.256 0 013.251-3.253 3.256 3.256 0 013.251 3.253c0 1.794 0-1.793 0 0m-79.861 62.456a2.49 2.49 0 002.487 2.489 2.491 2.491 0 002.489-2.489 2.491 2.491 0 00-2.489-2.49 2.49 2.49 0 00-2.487 2.49c0 1.373 0-1.374 0 0m5.74 0a3.256 3.256 0 01-3.253 3.252 3.253 3.253 0 010-6.505 3.256 3.256 0 013.253 3.253c0 1.794 0-1.795 0 0m-46.702 33.179a2.491 2.491 0 002.489 2.49 2.492 2.492 0 002.488-2.49 2.492 2.492 0 00-2.488-2.49 2.492 2.492 0 00-2.489 2.49c0 1.374 0-1.373 0 0m5.74 0a3.257 3.257 0 01-3.251 3.253 3.255 3.255 0 01-3.251-3.253 3.255 3.255 0 013.251-3.253 3.257 3.257 0 013.251 3.253c0 1.794 0-1.794 0 0m-4.064 22.771h.975v-19.518h-.975v19.518zm7.427-22.771a2.49 2.49 0 002.487 2.49 2.49 2.49 0 000-4.98 2.492 2.492 0 00-2.487 2.49c0 1.374 0-1.373 0 0m5.739 0a3.256 3.256 0 01-3.252 3.253 3.255 3.255 0 01-3.25-3.253 3.255 3.255 0 013.25-3.253 3.256 3.256 0 013.252 3.253c0 1.794 0-1.794 0 0m43.025 67.01a2.491 2.491 0 002.489 2.49 2.491 2.491 0 000-4.98 2.492 2.492 0 00-2.489 2.49c0 1.374 0-1.373 0 0m5.739 0a3.255 3.255 0 01-3.25 3.253 3.257 3.257 0 01-3.251-3.253 3.257 3.257 0 013.251-3.253c1.793 0 3.25 1.46 3.25 3.253 0 1.793 0-1.793 0 0m15.067-7.156a2.492 2.492 0 002.489 2.49 2.491 2.491 0 000-4.98 2.491 2.491 0 00-2.489 2.49c0 1.373 0-1.374 0 0m5.74 0a3.257 3.257 0 01-3.251 3.253 3.257 3.257 0 01-3.251-3.253 3.257 3.257 0 013.251-3.253 3.257 3.257 0 013.251 3.253c0 1.793 0-1.793 0 0m3.366-58.406a2.484 2.484 0 002.62 2.339 2.49 2.49 0 002.328-2.632 2.486 2.486 0 00-2.621-2.339 2.487 2.487 0 00-2.327 2.632c.079 1.371-.081-1.371 0 0m5.706-.338A3.251 3.251 0 01244 275.19c-1.782.107-3.318-1.265-3.424-3.055a3.253 3.253 0 013.043-3.439c1.782-.107 3.318 1.266 3.423 3.056.105 1.79-.105-1.79 0 0m-82.706 21.661h.975v-19.518h-.975v19.518z"/><path d="M173.652 300.569h-13.705v-5.27h.643v4.613h12.617l21.899-59.197.601.233-22.055 59.621z"/><path d="M191.539 255.028h-6.885v-23.092l6.618-8.786.534.389-6.488 8.613v22.221h6.221v.655z"/><path d="M198.308 229.005h-11.703v-.655h11.049v-22.766h.654v23.421zm-68.433 7.807h.976v-21.469h-.976v21.469zm-32.294 33.18l-3.107-7.955-27.896-12.727-4.16-10.96.6-.237 4.064 10.71 27.893 12.725 3.204 8.201-.598.243zm-5.904-135.321H72.472l-11.354-18.204V94.985h.645v21.294l11.065 17.738h18.849v.654z"/><path d="M60.714 108.647l-.246-.6 14.947-5.953v-8.41h.657v8.846l-15.358 6.117z"/><path d="M60.71 112.551l-.242-.623 22.674-9.1.074-7.843.659.007-.078 8.294-.206.082-22.881 9.183zm11.95 22.12l-.489-.438 7.446-8.281h8.151v-9.498h.658v10.153H79.91l-7.25 8.064z"/><path d="M72.003 132.719l-.482-.45 6.915-9.309h5.438v.703h-5.143l-6.728 9.056zM70.7 117.755l-.48-.501 4.24-5.354h10.065v.744h-9.78l-4.046 5.111zm-2.968 32.53l-23.52-34.019v-12.823h.654v12.623l23.404 33.853-.538.366z"/><path d="M67.077 158.742l-26.765-41.545v-43.03h.648v42.835l26.66 41.385-.543.355z"/><path d="M31.87 129.466h-.66V73.491l22.268-24.047.488.443L31.87 73.745v55.721zM1.3 134.183h50.065v-.976H1.3v.976zm1.961 11.941l-.01-.975c15.492-.385 41.585-.877 42.262.142l-.457.691.23-.345-.162.417c-1.19-.679-25.687-.332-41.863.07m34.45 58.159h-.648v-49.444H6.5v14.001h-.648v-14.652H37.71v50.095z"/><path d="M34.46 186.067h-.66v-29.269H11.704v-.658H34.46v29.927z"/><path d="M23.67 229.656l-8.065-15.806V167.2h12.353v.647H16.253v45.925l7.994 15.588-.576.296z"/><path d="M22.72 220.547l-3.864-7.206v-37.033h7.152v.66h-6.463v36.292l3.787 6.984-.611.303zm44.9.651H47.595l-6.107-11.056h-13.53v-.654h13.919l6.106 11.056H67.62v.654zm-18.13 31.879l-16.183-31.229h-7.3v-.65h7.695l16.363 31.579-.576.3zm11.698 52.046l-33.88-65.411.58-.298 33.88 65.413-.58.296zm6.506-8.457l-7.974-14.955-7.705-3.982.3-.581 7.888 4.075 8.067 15.134-.576.309z"/><path d="M71.257 320.737l-.126-.255-17.165-35.246.582-.281 17.041 34.99 16.629-5.654.208.61-17.17 5.836zm132.513 63.107h-10.013v-.659h9.371v-25.888l.04-.075 9.534-17.618.56.319-9.492 17.544v26.377zm25.132-58.553h-.685l.041-41.262 6.508-11.435.603.313-6.467 11.362v41.022zm9.106-8.457h-.689v-35.386l5.293-6.902.559.378-5.163 6.733v35.177z"/><path d="M237.382 323.339l-5.191-10.374-.073-26.057.656-.001.073 25.981 5.123 10.164-.588.287zm21.33-145.73l-.587-.289 7.844-17.277h26.617v.676H266.38l-7.668 16.89z"/><path d="M263.85 196.476l-.523-.382 17.388-24.703-2.392-2.842h-9.738v-7.855h.645v7.2h9.39l2.912 3.461-17.682 25.121zm-26.515 8.457h-.666l.036-19.46 7.824-15.02.593.297-7.787 14.949v19.234z"/><path d="M244.385 202.982l-.564-.332 9.084-15.361 5.296 3.607 10.445-14.588.533.378-10.819 15.109-5.246-3.574-8.729 14.761zM227.029 52.766a2.488 2.488 0 002.55 2.42 2.488 2.488 0 002.413-2.558 2.488 2.488 0 00-2.55-2.42 2.489 2.489 0 00-2.413 2.558c.037 1.372-.038-1.372 0 0m5.724-.158a3.253 3.253 0 01-3.153 3.34 3.251 3.251 0 01-3.333-3.16 3.253 3.253 0 013.154-3.342 3.251 3.251 0 013.332 3.162c.05 1.791-.048-1.793 0 0m9.88 19.676a2.489 2.489 0 002.551 2.42 2.489 2.489 0 002.413-2.558 2.488 2.488 0 00-2.551-2.42 2.489 2.489 0 00-2.413 2.558c.038 1.372-.038-1.374 0 0m5.725-.16a3.253 3.253 0 01-3.153 3.342 3.252 3.252 0 01-3.333-3.16 3.252 3.252 0 013.154-3.343 3.25 3.25 0 013.332 3.161c.05 1.793-.049-1.792 0 0m-31.082 167.895a2.488 2.488 0 002.437 2.535 2.49 2.49 0 00.093-4.977 2.488 2.488 0 00-2.53 2.442c-.026 1.372.025-1.373 0 0m5.729.107a3.253 3.253 0 01-3.307 3.191 3.253 3.253 0 01.122-6.504 3.252 3.252 0 013.185 3.313c-.033 1.792.034-1.794 0 0m67.743 3.062a2.489 2.489 0 002.348 2.615 2.484 2.484 0 002.604-2.357 2.487 2.487 0 00-2.347-2.614 2.486 2.486 0 00-2.605 2.356c-.071 1.37.072-1.371 0 0m5.712.299a3.248 3.248 0 01-3.405 3.079 3.25 3.25 0 01-3.066-3.417 3.248 3.248 0 013.403-3.08 3.253 3.253 0 013.068 3.418c-.093 1.791.093-1.791 0 0M106.743 366.882a2.49 2.49 0 002.438 2.534 2.489 2.489 0 00.093-4.977 2.49 2.49 0 00-2.531 2.443c-.025 1.372.026-1.373 0 0m5.73.107a3.254 3.254 0 01-3.306 3.192 3.255 3.255 0 01-3.185-3.313 3.252 3.252 0 013.305-3.192 3.252 3.252 0 013.186 3.313c-.032 1.793.034-1.794 0 0"/><path d="M192.446 136.622h-.64V85.449h7.958l27.981-31.45.472.442-28.171 31.664h-7.6v50.517zm30.456-43.589h-7.039v-.655h6.773l19.43-19.513.455.467-19.619 19.701zM126.787 391h-14.692l-4.163-9.802v-10.366h1.308v10.238l3.725 8.658h13.822V391zm72.172-66.359h-.651l.031-41.381 19.536-41.243.589.278-19.505 41.177v41.169zm68.177-39.035l-.558-.357 25.449-39.329.559.356-25.45 39.33zm22.963-109.428a2.487 2.487 0 002.346 2.615 2.484 2.484 0 002.605-2.357 2.488 2.488 0 00-2.346-2.615 2.486 2.486 0 00-2.605 2.357c-.071 1.371.071-1.371 0 0m5.711.299a3.25 3.25 0 01-3.404 3.079 3.252 3.252 0 01-3.067-3.417 3.25 3.25 0 013.404-3.08 3.253 3.253 0 013.067 3.418c-.093 1.79.093-1.791 0 0m33.3 1.653a2.487 2.487 0 002.348 2.615 2.483 2.483 0 002.603-2.356 2.486 2.486 0 00-2.346-2.615 2.486 2.486 0 00-2.605 2.356c-.071 1.372.072-1.371 0 0m5.711.299a3.249 3.249 0 01-3.404 3.079c-1.782-.093-3.158-1.628-3.067-3.418a3.25 3.25 0 013.404-3.079 3.251 3.251 0 013.067 3.418c-.093 1.791.093-1.792 0 0m1.441-7.456a2.489 2.489 0 002.348 2.616 2.49 2.49 0 00.257-4.973 2.489 2.489 0 00-2.605 2.357c-.071 1.371.072-1.37 0 0m5.711.299a3.25 3.25 0 01-3.404 3.08c-1.782-.094-3.158-1.628-3.067-3.418a3.249 3.249 0 013.404-3.079 3.251 3.251 0 013.067 3.417c-.093 1.79.093-1.791 0 0m-10.262 15.315a2.489 2.489 0 002.346 2.616 2.484 2.484 0 002.605-2.357 2.487 2.487 0 00-2.346-2.615 2.486 2.486 0 00-2.605 2.356c-.071 1.371.072-1.372 0 0m5.711.299a3.25 3.25 0 01-3.404 3.08 3.254 3.254 0 01-3.067-3.418 3.247 3.247 0 013.404-3.079 3.251 3.251 0 013.067 3.417c-.093 1.79.093-1.791 0 0"/><path d="M266.486 218.596l-.558-.357 25.449-39.329.558.357-25.449 39.329zm9.092 0l-.548-.354 25.035-39.332h28.281v.656h-27.925l-24.843 39.03z"/><path d="M296.406 199.078l-.57-.326 7.33-13.321 28.431-.015v.666l-28.049.015-7.142 12.981zm42.343-30.577h-.65v-31.228h-49.415v-.651h50.065v31.879z"/></g><g transform="matrix(0 -1 -1 0 391 342)" opacity=".1" filter="url(#a)" fill="#4D5055"><path d="M58.831 156.377a4.73 4.73 0 00-6.579-1.201 4.738 4.738 0 00-1.2 6.582 4.733 4.733 0 006.578 1.202 4.74 4.74 0 001.201-6.583c-1.483-2.146 1.482 2.147 0 0m-8.973 6.205a6.19 6.19 0 011.57-8.6 6.183 6.183 0 018.596 1.57 6.193 6.193 0 01-1.57 8.602 6.184 6.184 0 01-8.596-1.572c-1.937-2.804 1.937 2.804 0 0m31.565 164.336a4.732 4.732 0 004.727 4.729 4.732 4.732 0 004.727-4.729c0-2.61-2.12-4.73-4.727-4.73a4.732 4.732 0 00-4.727 4.73c0 2.609 0-2.61 0 0m10.904 0a6.186 6.186 0 01-6.177 6.18 6.185 6.185 0 01-6.177-6.18 6.186 6.186 0 016.177-6.181 6.187 6.187 0 016.177 6.181c0 3.408 0-3.408 0 0m-15.611 21.144L10.403 215.51v-52.214h20.961v41.056h34.917v1.463H29.902V164.76H11.865v50.405l66.158 132.243-1.307.654z"/><path d="M71.846 200.53a4.733 4.733 0 00-4.727 4.729c0 2.609 2.12 4.73 4.727 4.73a4.733 4.733 0 004.727-4.73 4.733 4.733 0 00-4.727-4.729c-2.608 0 2.608 0 0 0m0 10.909a6.186 6.186 0 01-6.177-6.18c0-3.408 2.772-6.181 6.177-6.181s6.177 2.773 6.177 6.181a6.186 6.186 0 01-6.177 6.18c-3.405 0 3.405 0 0 0M3.407 194.524H1.951v-44.193H41.1v38.084h33.514v-32.686l-26.227-40.002V95.636h1.457v19.652l26.227 40.002v34.588H39.644v-38.082H3.407v42.728z"/><path d="M43.713 90.106c0 2.609 2.12 4.73 4.726 4.73a4.733 4.733 0 004.727-4.73 4.732 4.732 0 00-4.727-4.73 4.732 4.732 0 00-4.726 4.73c0 2.609 0-2.608 0 0m10.903 0c0 3.407-2.772 6.18-6.177 6.18s-6.177-2.773-6.177-6.18c0-3.408 2.772-6.18 6.177-6.18s6.177 2.772 6.177 6.18c0 3.407 0-3.408 0 0"/><path d="M37.04 130.116H25.357V107.02h1.449v21.635h8.786V77.463l.166-.203 32.697-38.876 1.115.935L37.04 77.99v52.126z"/><path d="M68.207 31.134a4.738 4.738 0 00.62 6.663 4.732 4.732 0 006.657-.62 4.738 4.738 0 00-.618-6.662 4.73 4.73 0 00-6.66.619c-1.665 2.008 1.667-2.009 0 0m8.395 6.97a6.186 6.186 0 01-8.702.81 6.194 6.194 0 01-.808-8.707 6.186 6.186 0 018.702-.81 6.195 6.195 0 01.808 8.707c-2.176 2.624 2.177-2.623 0 0m19.126 318.741a4.733 4.733 0 004.727 4.729 4.733 4.733 0 004.727-4.729 4.732 4.732 0 00-4.727-4.73 4.733 4.733 0 00-4.727 4.73c0 2.607 0-2.609 0 0m10.904 0a6.186 6.186 0 01-6.177 6.18 6.185 6.185 0 01-6.176-6.18 6.185 6.185 0 016.176-6.181 6.186 6.186 0 016.177 6.181c0 3.408 0-3.409 0 0M20.79 130.116H0v-21.69l19.527-41.562 19.087-18.72 1.048 1.043-18.996 18.628L1.48 108.754v19.887h17.83V92.916h1.48v37.2z"/><path d="M38.593 42.52a4.738 4.738 0 000 6.693 4.731 4.731 0 006.688 0 4.738 4.738 0 000-6.693 4.731 4.731 0 00-6.688 0c-1.845 1.846 1.844-1.845 0 0m7.713 7.719a6.185 6.185 0 01-8.739 0 6.194 6.194 0 010-8.745 6.183 6.183 0 018.74 0 6.192 6.192 0 010 8.745c-2.41 2.41 2.41-2.41 0 0m29.115 176.814h-34.2l-4.974-11.247H22.757v-21.282h1.463v19.832h12.985l4.973 11.248h33.244v1.449z"/><path d="M80.3 221.998a4.733 4.733 0 00-4.728 4.731 4.733 4.733 0 004.727 4.729 4.732 4.732 0 004.726-4.729c0-2.61-2.12-4.731-4.726-4.731-2.608 0 2.607 0 0 0m0 10.91a6.186 6.186 0 01-6.177-6.179c0-3.409 2.772-6.182 6.177-6.182 3.406 0 6.176 2.773 6.176 6.182a6.185 6.185 0 01-6.176 6.179c-3.406 0 3.406 0 0 0m-2.921 70.914l-12.797-25.561-14.42-8.356-22.203-43.473 1.295-.68 22.006 43.089 14.418 8.354 12.996 25.949-1.295.678z"/><path d="M84.5 306.531a4.732 4.732 0 00-6.37-2.033 4.736 4.736 0 00-2.032 6.372 4.732 4.732 0 006.368 2.036 4.739 4.739 0 002.033-6.375c-1.195-2.317 1.196 2.319 0 0m-9.69 5.004c-1.562-3.028-.37-6.765 2.657-8.326a6.181 6.181 0 018.322 2.657 6.19 6.19 0 01-2.657 8.329 6.182 6.182 0 01-8.322-2.66c-1.562-3.028 1.561 3.03 0 0M138.49 391h-2.164v-92.393l-33.596-85.051 2.009-.816 33.751 85.442V391z"/><path d="M94.407 208.592c1.479 3.697 5.685 5.499 9.379 4.019 3.694-1.48 5.495-5.688 4.016-9.384a7.218 7.218 0 00-9.378-4.02c-3.694 1.48-5.496 5.689-4.017 9.385 1.479 3.697-1.48-3.696 0 0m15.45-6.188c1.931 4.828-.423 10.329-5.249 12.263-4.825 1.933-10.323-.423-12.256-5.252-1.932-4.828.423-10.33 5.248-12.263 4.826-1.934 10.325.423 12.257 5.252 1.931 4.828-1.932-4.829 0 0m76.979 172.982h-2.182v-77.113l33.736-85.533 2.024.818-33.578 85.14v76.688z"/><path d="M215.342 203.227c-1.478 3.696.323 7.904 4.017 9.384 3.694 1.48 7.9-.322 9.379-4.019 1.479-3.696-.323-7.905-4.017-9.385a7.22 7.22 0 00-9.379 4.02c-1.478 3.696 1.479-3.698 0 0m15.451 6.188c-1.933 4.829-7.431 7.185-12.256 5.252-4.826-1.934-7.182-7.435-5.249-12.263 1.932-4.829 7.431-7.186 12.257-5.252 4.825 1.933 7.179 7.435 5.248 12.263-1.933 4.829 1.931-4.828 0 0m-59.143 85.299h-21.456v-57.251h1.485v55.781h18.486V249.92h1.485v44.794z"/><path d="M165.298 244.944c0 2.609 2.12 4.73 4.726 4.73a4.733 4.733 0 004.728-4.73 4.731 4.731 0 00-4.728-4.728 4.731 4.731 0 00-4.726 4.728c0 2.609 0-2.609 0 0m10.904 0a6.187 6.187 0 01-6.178 6.181c-3.406 0-6.176-2.773-6.176-6.181 0-3.407 2.77-6.18 6.176-6.18a6.187 6.187 0 016.178 6.18c0 3.408 0-3.407 0 0m-74.774 72.54H99.94l.001-10.682-17.466-30.357-21.357-11.638.645-1.321 21.778 11.838.114.198 17.775 30.894-.002 11.068z"/><path d="M105.181 323.015a4.733 4.733 0 00-4.727-4.731 4.733 4.733 0 00-4.727 4.731 4.732 4.732 0 004.727 4.729 4.731 4.731 0 004.727-4.729c0-2.61 0 2.609 0 0m-10.903 0c0-3.409 2.771-6.181 6.176-6.181a6.185 6.185 0 016.177 6.181c0 3.408-2.77 6.18-6.177 6.18a6.186 6.186 0 01-6.176-6.18c0-3.409 0 3.408 0 0"/><path d="M117.034 338.303h-1.465v-35.532l-12.19-23.109h-9.955l-5.203-11.696-30.394-14.385-9.713-20.701 1.327-.622 9.49 20.226 30.409 14.391 5.038 11.323h9.886l12.77 24.212v35.893z"/><path d="M120.785 343.182c0-2.607-2.12-4.73-4.726-4.73a4.734 4.734 0 00-4.727 4.73 4.732 4.732 0 004.727 4.73 4.733 4.733 0 004.726-4.73c0-2.607 0 2.609 0 0m-10.903 0a6.186 6.186 0 016.177-6.18 6.186 6.186 0 016.177 6.18 6.186 6.186 0 01-6.177 6.181 6.186 6.186 0 01-6.177-6.181c0-3.408 0 3.409 0 0M40.312 178.26h12.353v-1.952H40.312v1.952z"/><path d="M58.192 172.554a4.733 4.733 0 00-4.727 4.73c0 2.608 2.12 4.73 4.727 4.73a4.733 4.733 0 004.726-4.73c0-2.609-2.12-4.73-4.726-4.73-2.608 0 2.606 0 0 0m0 10.91a6.186 6.186 0 01-6.177-6.18 6.186 6.186 0 016.177-6.181 6.186 6.186 0 016.177 6.181 6.186 6.186 0 01-6.177 6.18c-3.405 0 3.405 0 0 0m77.086-16.264H83.875v-1.461h51.053l5.502-2.443.661 1.304-5.813 2.6z"/><path d="M142.531 157.45a4.738 4.738 0 00-2.081 6.357 4.731 4.731 0 006.353 2.083 4.738 4.738 0 002.082-6.358 4.731 4.731 0 00-6.354-2.082c-2.325 1.179 2.327-1.178 0 0m4.927 9.734a6.183 6.183 0 01-8.302-2.722 6.19 6.19 0 012.721-8.307 6.181 6.181 0 018.301 2.722 6.19 6.19 0 01-2.72 8.307c-3.038 1.54 3.039-1.54 0 0m88.561.016h-51.821l-4.746-2.6.668-1.304 4.43 2.443h51.469v1.461z"/><path d="M172.44 165.89a4.73 4.73 0 006.353-2.083 4.735 4.735 0 00-2.081-6.357 4.73 4.73 0 00-4.272 8.44c2.326 1.179-2.326-1.179 0 0m4.928-9.735c3.038 1.54 4.258 5.267 2.719 8.308a6.184 6.184 0 01-8.303 2.721c-3.038-1.539-4.258-5.267-2.719-8.307a6.184 6.184 0 018.303-2.722c3.038 1.54-3.04-1.54 0 0m-27.303 74.151l-10.274-35.3v-8.939h1.486v8.836l10.217 35-1.429.403z"/><path d="M135.389 180.537a4.733 4.733 0 004.728 4.728 4.732 4.732 0 004.726-4.728c0-2.61-2.12-4.73-4.726-4.73a4.733 4.733 0 00-4.728 4.73c0 2.607 0-2.61 0 0m10.904 0c0 3.407-2.771 6.18-6.176 6.18a6.186 6.186 0 01-6.178-6.18 6.186 6.186 0 016.178-6.181c3.405 0 6.176 2.773 6.176 6.181 0 3.407 0-3.408 0 0m24.836 49.769l-1.429-.403 10.217-35v-8.836h1.486l-.029 9.141-10.245 35.098z"/><path d="M175.701 180.537a4.733 4.733 0 004.727 4.728 4.733 4.733 0 004.727-4.728c0-2.61-2.12-4.73-4.727-4.73a4.732 4.732 0 00-4.727 4.73c0 2.607 0-2.61 0 0m10.904 0a6.187 6.187 0 01-6.177 6.18 6.185 6.185 0 01-6.177-6.18 6.186 6.186 0 016.177-6.181c3.405 0 6.177 2.773 6.177 6.181 0 3.407 0-3.408 0 0m-57.867 184.44h-1.461v-64.606l-24.123-43.998-28.308-8.916-4.626-12.069 1.365-.528 4.372 11.41 28.193 8.879.142.257 24.446 44.586v64.985z"/><path d="M132.489 369.855a4.731 4.731 0 00-4.727-4.729 4.732 4.732 0 00-4.727 4.729c0 2.61 2.12 4.73 4.727 4.73a4.732 4.732 0 004.727-4.73c0-2.609 0 2.61 0 0m-10.903 0a6.185 6.185 0 016.176-6.179 6.184 6.184 0 016.177 6.179c0 3.409-2.77 6.182-6.177 6.182-3.405 0-6.176-2.773-6.176-6.182 0-3.407 0 3.409 0 0m30.093-26.347h-1.485v-35.783h21.456v24.402h-1.485v-22.942h-18.486v34.323z"/><path d="M174.752 337.327c0-2.61-2.12-4.73-4.728-4.73a4.732 4.732 0 00-4.726 4.73c0 2.61 2.12 4.73 4.726 4.73a4.733 4.733 0 004.728-4.73c0-2.61 0 2.61 0 0m-10.904 0c0-3.408 2.772-6.181 6.176-6.181a6.186 6.186 0 016.178 6.181 6.185 6.185 0 01-6.178 6.18c-3.404 0-6.176-2.772-6.176-6.18s0 3.408 0 0m7.802 51.721h-21.456V364.46h1.485v23.128h18.486v-34.322h1.485v35.782z"/><path d="M145.792 359.446c0 2.61 2.12 4.729 4.728 4.729a4.731 4.731 0 004.726-4.729 4.732 4.732 0 00-4.726-4.729 4.732 4.732 0 00-4.728 4.729c0 2.61 0-2.609 0 0m10.904 0c0 3.408-2.771 6.181-6.176 6.181a6.186 6.186 0 01-6.178-6.181 6.185 6.185 0 016.178-6.18 6.185 6.185 0 016.176 6.18c0 3.408 0-3.408 0 0m91.826 1.952c0 2.609 2.12 4.73 4.728 4.73a4.733 4.733 0 004.726-4.73c0-2.61-2.12-4.729-4.726-4.729a4.732 4.732 0 00-4.728 4.729c0 2.609 0-2.61 0 0m10.904 0c0 3.409-2.772 6.181-6.176 6.181a6.186 6.186 0 01-6.178-6.181 6.185 6.185 0 016.178-6.18c3.404 0 6.176 2.772 6.176 6.18 0 3.409 0-3.408 0 0m-3.803-64.11a4.735 4.735 0 001.824 6.435 4.728 4.728 0 006.432-1.825 4.738 4.738 0 00-1.823-6.436 4.732 4.732 0 00-6.433 1.826c-1.27 2.279 1.271-2.278 0 0m9.523 5.318a6.184 6.184 0 01-8.406 2.385c-2.974-1.66-4.044-5.434-2.384-8.41a6.185 6.185 0 018.406-2.386 6.192 6.192 0 012.384 8.411c-1.661 2.976 1.66-2.977 0 0m-21.826 29.191h-1.449v-45.186l16.534-25.267-2.414-9.315 12.064-18.47h1.774v1.471h-.989l-11.284 17.256 2.417 9.323-16.653 25.446v44.742z"/><path d="M272.105 225.251a4.733 4.733 0 00-4.727 4.731 4.732 4.732 0 004.727 4.729 4.733 4.733 0 004.727-4.729c0-2.61-2.12-4.731-4.727-4.731-2.608 0 2.607 0 0 0m0 10.91a6.186 6.186 0 01-6.177-6.179c0-3.409 2.772-6.182 6.177-6.182 3.406 0 6.176 2.773 6.176 6.182a6.185 6.185 0 01-6.176 6.179c-3.405 0 3.406 0 0 0m-57.918 153.538h-30.183v-10.346h1.463v8.885h27.256v-33.452l.092-.163 11.517-20.798v-56.087l10.448-16.854 1.239.777-10.223 16.498v56.045l-.092.164-11.517 20.797v34.534z"/><path d="M234.289 254.792a4.736 4.736 0 001.494 6.521 4.73 4.73 0 006.517-1.495 4.738 4.738 0 00-1.494-6.521 4.73 4.73 0 00-6.517 1.495c-1.385 2.21 1.385-2.21 0 0m9.24 5.798a6.183 6.183 0 01-8.516 1.953 6.19 6.19 0 01-1.952-8.522 6.183 6.183 0 018.516-1.954c2.886 1.81 3.762 5.635 1.952 8.523s1.81-2.888 0 0m-43.933 104.387h-9.74v-56.295h1.46v54.844h6.82v-21.725l14.316-20.847v-22.337h1.461V321.4l-14.317 20.847v22.73z"/><path d="M208.211 292.437c0 2.609 2.12 4.73 4.726 4.73a4.732 4.732 0 004.727-4.73 4.732 4.732 0 00-4.727-4.73 4.733 4.733 0 00-4.726 4.73c0 2.609 0-2.609 0 0m10.903 0a6.185 6.185 0 01-6.177 6.18 6.186 6.186 0 01-6.177-6.18c0-3.407 2.772-6.181 6.177-6.181 3.406 0 6.177 2.774 6.177 6.181 0 3.408 0-3.407 0 0m23.995 13.987l-1.238-.792 56.628-88.988 1.239.79-56.629 88.99z"/><path d="M296.728 209.869a4.735 4.735 0 001.44 6.533 4.73 4.73 0 006.53-1.44 4.74 4.74 0 00-1.439-6.535 4.734 4.734 0 00-6.531 1.442c-1.404 2.2 1.404-2.199 0 0m9.192 5.873a6.183 6.183 0 01-8.532 1.884 6.192 6.192 0 01-1.883-8.537 6.185 6.185 0 018.534-1.885 6.193 6.193 0 011.881 8.538c-1.832 2.872 1.834-2.872 0 0m6.229 19.164a4.737 4.737 0 001.939 6.403 4.73 4.73 0 004.46-8.343 4.732 4.732 0 00-6.399 1.94c-1.23 2.301 1.231-2.3 0 0m9.616 5.147a6.184 6.184 0 01-8.362 2.535c-3.003-1.607-4.139-5.362-2.533-8.367a6.184 6.184 0 018.362-2.534 6.19 6.19 0 012.533 8.366c-1.606 3.006 1.606-3.004 0 0m-51.756 72.877h-1.48v-13.914l.096-.167 46.537-80.969v-15.549h1.481v15.933l-.097.168-46.537 80.97v13.528z"/><path d="M310.291 196.801c0 2.609 2.12 4.73 4.726 4.73a4.732 4.732 0 004.727-4.73 4.732 4.732 0 00-4.727-4.729 4.733 4.733 0 00-4.726 4.729c0 2.609 0-2.608 0 0m10.903 0c0 3.408-2.772 6.181-6.177 6.181s-6.177-2.773-6.177-6.181a6.187 6.187 0 016.177-6.18 6.187 6.187 0 016.177 6.18c0 3.408 0-3.407 0 0M219.902 290.81h-1.438v-35.418l22.852-36.146 1.205.798-22.619 35.781v34.985z"/><path d="M240.833 213.09a4.735 4.735 0 001.387 6.544 4.728 4.728 0 005.153-7.932 4.729 4.729 0 00-6.54 1.388c-1.422 2.187 1.422-2.188 0 0m9.144 5.947a6.184 6.184 0 01-8.548 1.814 6.19 6.19 0 01-1.813-8.552 6.184 6.184 0 018.548-1.814 6.191 6.191 0 011.813 8.552c-1.856 2.858 1.857-2.857 0 0"/><path d="M251.083 230.957h-15.064v-1.464h14.255l39.542-62.944h18.374v1.464h-17.564l-39.543 62.944z"/><path d="M313.067 161.495a4.734 4.734 0 00-4.728 4.729 4.734 4.734 0 004.728 4.73 4.733 4.733 0 004.727-4.73 4.733 4.733 0 00-4.727-4.729c-2.607 0 2.607 0 0 0m0 10.909a6.186 6.186 0 01-6.177-6.18c0-3.408 2.771-6.181 6.177-6.181 3.405 0 6.176 2.773 6.176 6.181 0 3.407-2.771 6.18-6.176 6.18-3.406 0 3.405 0 0 0m17.88-18.216h-1.464v-11.004h-50.551v-23.477h28.8v1.468h-27.337v20.542h50.552v12.471z"/><path d="M301.688 153.537h-32.509v-51.053l30.235-21.812.838 1.183-29.635 21.378v48.85h31.071v1.454z"/><path d="M300.56 74.549a4.737 4.737 0 00-1.09 6.602 4.733 4.733 0 006.598 1.09 4.74 4.74 0 001.09-6.601 4.731 4.731 0 00-6.598-1.091c-2.121 1.52 2.119-1.52 0 0m6.353 8.872a6.184 6.184 0 01-8.622-1.425 6.192 6.192 0 011.424-8.627 6.184 6.184 0 018.621 1.424 6.193 6.193 0 01-1.423 8.628c-2.769 1.985 2.77-1.986 0 0m-64.337 111.103l-1.355-.593 18.308-40.827v-19.008l-9.185-7.319v-29.12l23.793-17.635.893 1.167-23.204 17.196v27.692l9.185 7.319-.064 20.16-18.371 40.968z"/><path d="M275.755 73.97a4.73 4.73 0 005.703 7.548 4.739 4.739 0 00.921-6.627 4.732 4.732 0 00-6.624-.92c-2.081 1.573 2.081-1.575 0 0m6.577 8.706a6.182 6.182 0 01-8.654-1.204 6.192 6.192 0 011.201-8.66 6.184 6.184 0 018.656 1.203 6.19 6.19 0 01-1.203 8.66c-2.717 2.057 2.719-2.055 0 0m-30.708 72.163H204.81v-64.52l.212-.214 42.535-43.263 1.027 1.04-42.324 43.047v62.439h45.364v1.471z"/><path d="M248.604 40.569a4.74 4.74 0 000 6.692 4.731 4.731 0 006.688 0 4.738 4.738 0 000-6.692 4.731 4.731 0 00-6.688 0c-1.844 1.845 1.845-1.846 0 0m7.714 7.718a6.185 6.185 0 01-8.739 0 6.194 6.194 0 010-8.745 6.184 6.184 0 018.74 0 6.193 6.193 0 01-.001 8.745c-2.409 2.41 2.41-2.412 0 0m3.758 95.492h-29.909V95.86l23.297-19.742.928 1.128-22.774 19.302v45.763h28.458v1.468z"/><path d="M255.424 70.205a4.738 4.738 0 00-.607 6.664 4.733 4.733 0 006.66.607 4.737 4.737 0 00.608-6.663 4.733 4.733 0 00-6.661-.608c-2.004 1.67 2.005-1.67 0 0m6.981 8.388a6.182 6.182 0 01-8.702-.796 6.19 6.19 0 01.793-8.708 6.185 6.185 0 018.703.795 6.194 6.194 0 01-.794 8.709c-2.618 2.181 2.618-2.183 0 0m-45.066 35.909h-1.476V100.84h14.954v1.476h-13.478v12.186z"/><path d="M220.915 120.032c0-2.609-2.12-4.73-4.726-4.73a4.733 4.733 0 00-4.728 4.73c0 2.61 2.12 4.73 4.728 4.73a4.732 4.732 0 004.726-4.73c0-2.609 0 2.61 0 0m-10.904 0a6.187 6.187 0 016.178-6.18c3.406 0 6.176 2.773 6.176 6.18 0 3.408-2.77 6.181-6.176 6.181a6.187 6.187 0 01-6.178-6.181c0-3.407 0 3.408 0 0m-87.775 34.807H75.422v-1.464h45.364V91.242l-16.16-16.04 1.026-1.036 16.584 16.47v64.203z"/><path d="M98.41 73.934a4.732 4.732 0 006.689 0 4.739 4.739 0 000-6.691 4.732 4.732 0 00-6.688 0 4.738 4.738 0 000 6.691c1.844 1.846-1.844-1.845 0 0m7.713-7.718a6.19 6.19 0 010 8.744 6.182 6.182 0 01-8.739 0 6.192 6.192 0 010-8.745 6.183 6.183 0 018.739.001c2.41 2.41-2.409-2.411 0 0m-9.896 76.912H66.32v-1.451h28.458v-45.25L72.144 77.884l.929-1.115 23.155 18.978v47.381z"/><path d="M66.22 77.478a4.732 4.732 0 006.66-.61 4.738 4.738 0 00-.609-6.663 4.733 4.733 0 00-6.66.608 4.74 4.74 0 00.608 6.665c2.005 1.67-2.004-1.67 0 0m6.98-8.388a6.193 6.193 0 01.795 8.708 6.185 6.185 0 01-8.704.795 6.192 6.192 0 01-.793-8.708 6.182 6.182 0 018.703-.795c2.618 2.181-2.62-2.183 0 0m37.983 45.412h-1.476v-12.186H96.228v-1.476h14.955v13.662z"/><path d="M114.934 120.032c0-2.609-2.12-4.73-4.727-4.73a4.733 4.733 0 00-4.727 4.73c0 2.61 2.12 4.73 4.727 4.73a4.732 4.732 0 004.727-4.73c0-2.609 0 2.61 0 0m-10.904 0a6.187 6.187 0 016.177-6.18 6.185 6.185 0 016.177 6.18 6.186 6.186 0 01-6.177 6.181c-3.405 0-6.177-2.773-6.177-6.181 0-3.407 0 3.408 0 0m58.518 143.454h-1.478V102.334l-58.34-52.952v-14.25h1.478v13.607l58.34 52.951v161.796z"/><path d="M98.98 29.6a4.733 4.733 0 004.725 4.731 4.733 4.733 0 004.727-4.73 4.732 4.732 0 00-4.727-4.73 4.732 4.732 0 00-4.725 4.73c0 2.608 0-2.608 0 0m10.902 0c0 3.408-2.771 6.181-6.177 6.181-3.405 0-6.177-2.773-6.177-6.181a6.186 6.186 0 016.177-6.18 6.185 6.185 0 016.177 6.18c0 3.408 0-3.408 0 0m51.757 105.07l-1.042-1.034 16.601-16.481V60.863l.156-.2 17.844-22.93 1.159.903-17.686 22.732v56.393l-17.032 16.91z"/><path d="M194.912 31.236a4.74 4.74 0 00.803 6.644 4.73 4.73 0 006.639-.805 4.737 4.737 0 00-.804-6.643 4.73 4.73 0 00-6.638.804c-1.609 2.053 1.609-2.053 0 0m8.583 6.735a6.183 6.183 0 01-8.675 1.05 6.192 6.192 0 01-1.05-8.68c2.103-2.683 5.996-3.155 8.675-1.051a6.191 6.191 0 011.05 8.681c-2.102 2.683 2.103-2.682 0 0m-57.202 49.858h-1.475V74.624l-17.381-18.036V44.89h1.477v11.111l17.379 18.035V87.83z"/><path d="M123.035 39.36a4.733 4.733 0 004.727 4.729 4.732 4.732 0 004.727-4.729 4.732 4.732 0 00-4.727-4.73 4.733 4.733 0 00-4.727 4.73c0 2.608 0-2.609 0 0m10.904 0a6.186 6.186 0 01-6.177 6.18 6.184 6.184 0 01-6.176-6.18c0-3.407 2.77-6.18 6.176-6.18a6.187 6.187 0 016.177 6.18c0 3.408 0-3.407 0 0m27.506 75.143l-.998-1.053 7.806-7.492V76.615l-8.956-6.376V50.917l7.659-13.183 1.243.744-7.456 12.84v18.168l8.957 6.376v30.719l-8.255 7.922z"/><path d="M165.962 31.736a4.737 4.737 0 001.645 6.485 4.73 4.73 0 004.836-8.131 4.731 4.731 0 00-6.481 1.646c-1.334 2.242 1.334-2.242 0 0m9.372 5.582a6.186 6.186 0 01-8.47 2.15 6.192 6.192 0 01-2.149-8.474 6.184 6.184 0 018.469-2.151 6.193 6.193 0 012.15 8.475c-1.742 2.928 1.742-2.93 0 0m-22.539 58.318h1.95V11.71h-1.95v83.925z"/><path d="M149.043 6.18c0 2.608 2.12 4.73 4.728 4.73a4.733 4.733 0 004.726-4.73 4.731 4.731 0 00-4.726-4.728 4.732 4.732 0 00-4.728 4.729c0 2.607 0-2.61 0 0m10.904 0c0 3.407-2.772 6.18-6.176 6.18a6.186 6.186 0 01-6.178-6.18A6.186 6.186 0 01153.771 0c3.404 0 6.176 2.773 6.176 6.18 0 3.408 0-3.407 0 0m.79 144.105l-20.946-27.748V111.9h1.459v10.137l20.647 27.351-1.16.897z"/><path d="M144.843 108.322c0 2.609-2.12 4.73-4.728 4.73a4.733 4.733 0 01-4.726-4.73 4.733 4.733 0 014.726-4.729 4.733 4.733 0 014.728 4.729c0 2.609 0-2.608 0 0m-10.904 0c0 3.407 2.771 6.181 6.176 6.181a6.187 6.187 0 006.178-6.181 6.187 6.187 0 00-6.178-6.181c-3.405 0-6.176 2.774-6.176 6.181s0-3.407 0 0m36.711 31.553l-.95-1.106 14.848-12.908V68.91l14.171-3.369 24.427-33.662 1.17.872-24.746 34.09-13.568 3.224v56.465l-15.352 13.345z"/><path d="M222.795 25.479a4.738 4.738 0 00.975 6.618 4.732 4.732 0 006.617-.975 4.736 4.736 0 00-.975-6.62 4.732 4.732 0 00-6.617.977c-1.555 2.094 1.557-2.095 0 0m8.757 6.508a6.184 6.184 0 01-8.646 1.276 6.19 6.19 0 01-1.274-8.65 6.184 6.184 0 018.645-1.276 6.194 6.194 0 011.275 8.65c-2.033 2.737 2.031-2.736 0 0M87.968 88.48l-1.493-.634v-68.19l25.367-11.849.641 1.323-24.515 11.451V88.48z"/><path d="M114.03 3.21a4.735 4.735 0 00-2.24 6.301 4.731 4.731 0 006.298 2.243 4.729 4.729 0 00-4.058-8.544c-2.355 1.12 2.355-1.12 0 0m4.68 9.854c-3.075 1.464-6.768.149-8.231-2.929a6.192 6.192 0 012.929-8.236 6.182 6.182 0 018.23 2.93 6.189 6.189 0 01-2.928 8.235c-3.075 1.464 3.077-1.462 0 0m22.286 210.086l-10.988-29.85-13.624-5.241.576-1.342 14.22 5.487 11.212 30.45-1.396.496z"/><path d="M110.973 190.75a4.728 4.728 0 10-2.522-6.193 4.735 4.735 0 002.522 6.193c2.403 1.013-2.402-1.012 0 0m4.232-10.054a6.19 6.19 0 013.296 8.095 6.186 6.186 0 01-8.091 3.298 6.19 6.19 0 01-3.294-8.097 6.182 6.182 0 018.089-3.296c3.138 1.323-3.138-1.323 0 0m64.331 42.454l-1.384-.496 11.119-30.45 13.667-5.487.571 1.342-13.075 5.241-10.898 29.85z"/><path d="M205.901 182.033a4.735 4.735 0 00-2.522 6.194 4.73 4.73 0 006.191 2.524 4.737 4.737 0 002.523-6.195 4.732 4.732 0 00-6.192-2.523c-2.403 1.013 2.402-1.013 0 0m4.232 10.055a6.182 6.182 0 01-8.09-3.297 6.189 6.189 0 013.295-8.095 6.184 6.184 0 018.091 3.296c1.321 3.141-.156 6.773-3.296 8.096-3.139 1.323 3.14-1.323 0 0m66.848-143.294h-1.475V36.96l-32.985-20.766.794-1.232 33.666 21.198v12.633z"/><path d="M235.747 16.672a4.733 4.733 0 006.532-1.437 4.738 4.738 0 00-1.436-6.534 4.732 4.732 0 00-6.531 1.437 4.735 4.735 0 001.435 6.534c2.198 1.405-2.197-1.406 0 0m5.877-9.193a6.19 6.19 0 011.875 8.539 6.182 6.182 0 01-8.533 1.876 6.191 6.191 0 01-1.877-8.538c1.837-2.872 5.666-3.715 8.535-1.877 2.87 1.836-2.869-1.838 0 0M184.14 35.131h-1.437V8.458h14.955V9.92H184.14v25.21z"/><path d="M203.185 4.704a4.733 4.733 0 00-4.728 4.73c0 2.608 2.12 4.73 4.728 4.73a4.732 4.732 0 004.726-4.73c0-2.61-2.119-4.73-4.726-4.73-2.608 0 2.607 0 0 0m0 10.91a6.186 6.186 0 01-6.177-6.18 6.186 6.186 0 016.177-6.181c3.406 0 6.176 2.772 6.176 6.181 0 3.407-2.77 6.18-6.176 6.18s3.406 0 0 0M137.84 256.98h-.668v-24.736l-11.035-23.789.609-.269 11.094 23.987v24.807z"/><path d="M134.702 258.281a2.491 2.491 0 002.488 2.49 2.492 2.492 0 002.488-2.49 2.49 2.49 0 00-2.488-2.488 2.49 2.49 0 00-2.488 2.488c0 1.374 0-1.373 0 0m5.739 0a3.255 3.255 0 01-3.251 3.253 3.255 3.255 0 01-3.251-3.253 3.256 3.256 0 013.251-3.253 3.256 3.256 0 013.251 3.253c0 1.794 0-1.793 0 0m-81.811-22.12a2.491 2.491 0 002.488 2.49 2.49 2.49 0 000-4.979 2.49 2.49 0 00-2.488 2.489c0 1.374 0-1.373 0 0m5.739 0a3.255 3.255 0 01-3.251 3.253 3.254 3.254 0 01-3.251-3.253 3.256 3.256 0 013.25-3.253 3.257 3.257 0 013.252 3.253c0 1.795 0-1.792 0 0m10.515 126.864a2.491 2.491 0 002.487 2.49 2.492 2.492 0 002.489-2.49 2.492 2.492 0 00-2.489-2.49 2.491 2.491 0 00-2.487 2.49c0 1.373 0-1.373 0 0m5.74 0a3.257 3.257 0 01-3.253 3.253 3.255 3.255 0 01-3.25-3.253 3.255 3.255 0 013.25-3.253 3.257 3.257 0 013.253 3.253c0 1.793 0-1.793 0 0m47.576-122.96a2.492 2.492 0 002.487 2.49 2.491 2.491 0 000-4.98 2.49 2.49 0 00-2.487 2.49c0 1.373 0-1.374 0 0m5.739 0a3.257 3.257 0 01-3.252 3.253 3.256 3.256 0 01-3.25-3.253 3.255 3.255 0 013.25-3.253 3.256 3.256 0 013.252 3.253c0 1.793 0-1.794 0 0M58.63 93.033a2.49 2.49 0 002.486 2.49 2.49 2.49 0 000-4.978 2.49 2.49 0 00-2.486 2.488c0 1.374 0-1.373 0 0m5.739 0a3.256 3.256 0 01-3.252 3.253 3.255 3.255 0 01-3.25-3.253 3.255 3.255 0 013.25-3.253 3.257 3.257 0 013.252 3.253c0 1.794 0-1.793 0 0m9.215-1.951a2.491 2.491 0 002.488 2.49 2.492 2.492 0 002.489-2.49 2.492 2.492 0 00-2.489-2.49 2.491 2.491 0 00-2.488 2.49c0 1.373 0-1.374 0 0m5.74 0a3.256 3.256 0 01-3.252 3.252 3.255 3.255 0 01-3.25-3.252 3.255 3.255 0 013.25-3.253 3.256 3.256 0 013.251 3.253c0 1.794 0-1.795 0 0m2.063 1.951a2.491 2.491 0 002.489 2.49 2.491 2.491 0 002.488-2.49 2.491 2.491 0 00-2.489-2.49 2.491 2.491 0 00-2.488 2.49c0 1.374 0-1.373 0 0m5.74 0a3.255 3.255 0 01-3.252 3.253 3.256 3.256 0 01-3.25-3.253 3.257 3.257 0 013.25-3.253 3.256 3.256 0 013.252 3.253c0 1.794 0-1.793 0 0m-1.839 21.469a2.49 2.49 0 002.487 2.49 2.49 2.49 0 000-4.979 2.49 2.49 0 00-2.487 2.489c0 1.374 0-1.373 0 0m5.74 0a3.256 3.256 0 01-3.253 3.253 3.254 3.254 0 01-3.25-3.253 3.255 3.255 0 013.25-3.252 3.257 3.257 0 013.253 3.252c0 1.795 0-1.792 0 0m-23.523 4.229c0 .962.781 1.743 1.741 1.743a1.743 1.743 0 000-3.485c-.96 0-1.74.78-1.74 1.742s0-.962 0 0m4.016 0a2.28 2.28 0 01-2.276 2.277 2.28 2.28 0 01-2.275-2.277 2.28 2.28 0 012.275-2.277 2.28 2.28 0 012.276 2.277c0 1.255 0-1.255 0 0m-6.618 42.288a1.742 1.742 0 103.484 0 1.742 1.742 0 00-3.484 0c0 .962 0-.96 0 0m4.017 0a2.28 2.28 0 01-2.276 2.277 2.279 2.279 0 01-2.275-2.277 2.279 2.279 0 012.275-2.277 2.28 2.28 0 012.276 2.277c0 1.255 0-1.255 0 0m55.151 45.541c0 .96.781 1.742 1.741 1.742a1.743 1.743 0 000-3.484c-.96 0-1.741.78-1.741 1.742 0 .96 0-.962 0 0m4.016 0a2.28 2.28 0 01-2.275 2.277 2.28 2.28 0 01-2.276-2.277 2.28 2.28 0 012.276-2.277 2.28 2.28 0 012.275 2.277c0 1.255 0-1.255 0 0M4.436 170.127c0 .962.78 1.743 1.74 1.743a1.744 1.744 0 000-3.485c-.96 0-1.74.782-1.74 1.742 0 .962 0-.96 0 0m4.016 0a2.278 2.278 0 01-2.275 2.277 2.278 2.278 0 010-4.554 2.28 2.28 0 012.275 2.277c0 1.257 0-1.255 0 0m23.942 18.216c0 .962.781 1.743 1.741 1.743a1.744 1.744 0 000-3.486c-.96 0-1.741.782-1.741 1.743 0 .962 0-.961 0 0m4.017 0a2.28 2.28 0 01-2.276 2.278 2.278 2.278 0 010-4.554 2.278 2.278 0 012.276 2.276c0 1.255 0-1.256 0 0m-10.519-11.059c0 .96.781 1.742 1.741 1.742.961 0 1.743-.782 1.743-1.742 0-.962-.782-1.743-1.743-1.743-.96 0-1.741.781-1.741 1.743 0 .96 0-.962 0 0m4.017 0a2.28 2.28 0 01-2.276 2.277 2.28 2.28 0 01-2.276-2.277 2.28 2.28 0 012.276-2.277 2.28 2.28 0 012.276 2.277c0 1.255 0-1.255 0 0m-7.268 53.998c0 .961.781 1.742 1.741 1.742a1.743 1.743 0 000-3.484c-.96 0-1.741.78-1.741 1.742 0 .961 0-.962 0 0m4.017 0a2.28 2.28 0 01-2.276 2.277 2.28 2.28 0 01-2.276-2.277 2.28 2.28 0 012.276-2.277 2.28 2.28 0 012.276 2.277c0 1.255 0-1.255 0 0m-.766 7.156c0 .961.781 1.743 1.741 1.743a1.743 1.743 0 000-3.485c-.96 0-1.741.781-1.741 1.742s0-.961 0 0m4.017 0a2.279 2.279 0 01-2.276 2.277 2.279 2.279 0 01-2.276-2.277 2.28 2.28 0 012.276-2.277 2.28 2.28 0 012.276 2.277c0 1.256 0-1.255 0 0m37.595-17.565c0 .96.781 1.742 1.741 1.742.96 0 1.743-.782 1.743-1.742 0-.962-.783-1.743-1.743-1.743-.96 0-1.74.781-1.74 1.743 0 .96 0-.962 0 0m4.016 0a2.28 2.28 0 01-2.276 2.277 2.28 2.28 0 01-2.275-2.277 2.28 2.28 0 012.275-2.277 2.28 2.28 0 012.276 2.277c0 1.255 0-1.255 0 0m117.797.325a2.49 2.49 0 002.487 2.49 2.492 2.492 0 002.488-2.49 2.492 2.492 0 00-2.488-2.49 2.49 2.49 0 00-2.487 2.49c0 1.373 0-1.373 0 0m5.739 0a3.257 3.257 0 01-3.252 3.253 3.256 3.256 0 01-3.25-3.253 3.255 3.255 0 013.25-3.253 3.256 3.256 0 013.252 3.253c0 1.793 0-1.794 0 0m1.413-17.566a2.491 2.491 0 002.488 2.49 2.49 2.49 0 000-4.979 2.49 2.49 0 00-2.488 2.489c0 1.374 0-1.373 0 0m5.739 0a3.255 3.255 0 01-3.251 3.253 3.255 3.255 0 01-3.251-3.253 3.256 3.256 0 013.251-3.253 3.256 3.256 0 013.251 3.253c0 1.795 0-1.793 0 0m42.375-35.782a2.49 2.49 0 002.488 2.489 2.49 2.49 0 002.488-2.489 2.492 2.492 0 00-2.488-2.489 2.49 2.49 0 00-2.488 2.489c0 1.374 0-1.373 0 0m5.739 0a3.257 3.257 0 01-3.251 3.253 3.257 3.257 0 01-3.251-3.253 3.256 3.256 0 013.251-3.253 3.256 3.256 0 013.251 3.253c0 1.793 0-1.794 0 0m42.375-6.506a2.491 2.491 0 002.488 2.49 2.491 2.491 0 002.489-2.49 2.491 2.491 0 00-2.489-2.489 2.49 2.49 0 00-2.488 2.489c0 1.374 0-1.373 0 0m5.739 0a3.255 3.255 0 01-3.251 3.253 3.255 3.255 0 01-3.251-3.253 3.254 3.254 0 013.251-3.252 3.255 3.255 0 013.251 3.252c0 1.795 0-1.794 0 0m-39.549 37.084a2.49 2.49 0 002.488 2.489 2.491 2.491 0 002.489-2.489 2.492 2.492 0 00-2.489-2.489 2.492 2.492 0 00-2.488 2.489c0 1.373 0-1.372 0 0m5.739 0a3.255 3.255 0 01-3.251 3.253 3.255 3.255 0 01-3.251-3.253 3.256 3.256 0 013.251-3.253 3.255 3.255 0 013.251 3.253c0 1.794 0-1.793 0 0m4.014-23.421a2.49 2.49 0 002.488 2.489 2.491 2.491 0 002.489-2.489 2.49 2.49 0 00-2.489-2.489 2.49 2.49 0 00-2.488 2.489c0 1.373 0-1.374 0 0m5.739 0a3.255 3.255 0 01-3.251 3.253 3.255 3.255 0 01-3.251-3.253 3.256 3.256 0 013.251-3.253 3.256 3.256 0 013.251 3.253c0 1.794 0-1.793 0 0m-79.861 62.456a2.49 2.49 0 002.487 2.489 2.491 2.491 0 002.489-2.489 2.491 2.491 0 00-2.489-2.49 2.49 2.49 0 00-2.487 2.49c0 1.373 0-1.374 0 0m5.74 0a3.256 3.256 0 01-3.253 3.252 3.253 3.253 0 010-6.505 3.256 3.256 0 013.253 3.253c0 1.794 0-1.795 0 0m-46.702 33.179a2.491 2.491 0 002.489 2.49 2.492 2.492 0 002.488-2.49 2.492 2.492 0 00-2.488-2.49 2.492 2.492 0 00-2.489 2.49c0 1.374 0-1.373 0 0m5.74 0a3.257 3.257 0 01-3.251 3.253 3.255 3.255 0 01-3.251-3.253 3.255 3.255 0 013.251-3.253 3.257 3.257 0 013.251 3.253c0 1.794 0-1.794 0 0m-4.064 22.771h.975v-19.518h-.975v19.518zm7.427-22.771a2.49 2.49 0 002.487 2.49 2.49 2.49 0 000-4.98 2.492 2.492 0 00-2.487 2.49c0 1.374 0-1.373 0 0m5.739 0a3.256 3.256 0 01-3.252 3.253 3.255 3.255 0 01-3.25-3.253 3.255 3.255 0 013.25-3.253 3.256 3.256 0 013.252 3.253c0 1.794 0-1.794 0 0m43.025 67.01a2.491 2.491 0 002.489 2.49 2.491 2.491 0 000-4.98 2.492 2.492 0 00-2.489 2.49c0 1.374 0-1.373 0 0m5.739 0a3.255 3.255 0 01-3.25 3.253 3.257 3.257 0 01-3.251-3.253 3.257 3.257 0 013.251-3.253c1.793 0 3.25 1.46 3.25 3.253 0 1.793 0-1.793 0 0m15.067-7.156a2.492 2.492 0 002.489 2.49 2.491 2.491 0 000-4.98 2.491 2.491 0 00-2.489 2.49c0 1.373 0-1.374 0 0m5.74 0a3.257 3.257 0 01-3.251 3.253 3.257 3.257 0 01-3.251-3.253 3.257 3.257 0 013.251-3.253 3.257 3.257 0 013.251 3.253c0 1.793 0-1.793 0 0m3.366-58.406a2.484 2.484 0 002.62 2.339 2.49 2.49 0 002.328-2.632 2.486 2.486 0 00-2.621-2.339 2.487 2.487 0 00-2.327 2.632c.079 1.371-.081-1.371 0 0m5.706-.338A3.251 3.251 0 01244 275.19c-1.782.107-3.318-1.265-3.424-3.055a3.253 3.253 0 013.043-3.439c1.782-.107 3.318 1.266 3.423 3.056.105 1.79-.105-1.79 0 0m-82.706 21.661h.975v-19.518h-.975v19.518z"/><path d="M173.652 300.569h-13.705v-5.27h.643v4.613h12.617l21.899-59.197.601.233-22.055 59.621z"/><path d="M191.539 255.028h-6.885v-23.092l6.618-8.786.534.389-6.488 8.613v22.221h6.221v.655z"/><path d="M198.308 229.005h-11.703v-.655h11.049v-22.766h.654v23.421zm-68.433 7.807h.976v-21.469h-.976v21.469zm-32.294 33.18l-3.107-7.955-27.896-12.727-4.16-10.96.6-.237 4.064 10.71 27.893 12.725 3.204 8.201-.598.243zm-5.904-135.321H72.472l-11.354-18.204V94.985h.645v21.294l11.065 17.738h18.849v.654z"/><path d="M60.714 108.647l-.246-.6 14.947-5.953v-8.41h.657v8.846l-15.358 6.117z"/><path d="M60.71 112.551l-.242-.623 22.674-9.1.074-7.843.659.007-.078 8.294-.206.082-22.881 9.183zm11.95 22.12l-.489-.438 7.446-8.281h8.151v-9.498h.658v10.153H79.91l-7.25 8.064z"/><path d="M72.003 132.719l-.482-.45 6.915-9.309h5.438v.703h-5.143l-6.728 9.056zM70.7 117.755l-.48-.501 4.24-5.354h10.065v.744h-9.78l-4.046 5.111zm-2.968 32.53l-23.52-34.019v-12.823h.654v12.623l23.404 33.853-.538.366z"/><path d="M67.077 158.742l-26.765-41.545v-43.03h.648v42.835l26.66 41.385-.543.355z"/><path d="M31.87 129.466h-.66V73.491l22.268-24.047.488.443L31.87 73.745v55.721zM1.3 134.183h50.065v-.976H1.3v.976zm1.961 11.941l-.01-.975c15.492-.385 41.585-.877 42.262.142l-.457.691.23-.345-.162.417c-1.19-.679-25.687-.332-41.863.07m34.45 58.159h-.648v-49.444H6.5v14.001h-.648v-14.652H37.71v50.095z"/><path d="M34.46 186.067h-.66v-29.269H11.704v-.658H34.46v29.927z"/><path d="M23.67 229.656l-8.065-15.806V167.2h12.353v.647H16.253v45.925l7.994 15.588-.576.296z"/><path d="M22.72 220.547l-3.864-7.206v-37.033h7.152v.66h-6.463v36.292l3.787 6.984-.611.303zm44.9.651H47.595l-6.107-11.056h-13.53v-.654h13.919l6.106 11.056H67.62v.654zm-18.13 31.879l-16.183-31.229h-7.3v-.65h7.695l16.363 31.579-.576.3zm11.698 52.046l-33.88-65.411.58-.298 33.88 65.413-.58.296zm6.506-8.457l-7.974-14.955-7.705-3.982.3-.581 7.888 4.075 8.067 15.134-.576.309z"/><path d="M71.257 320.737l-.126-.255-17.165-35.246.582-.281 17.041 34.99 16.629-5.654.208.61-17.17 5.836zm132.513 63.107h-10.013v-.659h9.371v-25.888l.04-.075 9.534-17.618.56.319-9.492 17.544v26.377zm25.132-58.553h-.685l.041-41.262 6.508-11.435.603.313-6.467 11.362v41.022zm9.106-8.457h-.689v-35.386l5.293-6.902.559.378-5.163 6.733v35.177z"/><path d="M237.382 323.339l-5.191-10.374-.073-26.057.656-.001.073 25.981 5.123 10.164-.588.287zm21.33-145.73l-.587-.289 7.844-17.277h26.617v.676H266.38l-7.668 16.89z"/><path d="M263.85 196.476l-.523-.382 17.388-24.703-2.392-2.842h-9.738v-7.855h.645v7.2h9.39l2.912 3.461-17.682 25.121zm-26.515 8.457h-.666l.036-19.46 7.824-15.02.593.297-7.787 14.949v19.234z"/><path d="M244.385 202.982l-.564-.332 9.084-15.361 5.296 3.607 10.445-14.588.533.378-10.819 15.109-5.246-3.574-8.729 14.761zM227.029 52.766a2.488 2.488 0 002.55 2.42 2.488 2.488 0 002.413-2.558 2.488 2.488 0 00-2.55-2.42 2.489 2.489 0 00-2.413 2.558c.037 1.372-.038-1.372 0 0m5.724-.158a3.253 3.253 0 01-3.153 3.34 3.251 3.251 0 01-3.333-3.16 3.253 3.253 0 013.154-3.342 3.251 3.251 0 013.332 3.162c.05 1.791-.048-1.793 0 0m9.88 19.676a2.489 2.489 0 002.551 2.42 2.489 2.489 0 002.413-2.558 2.488 2.488 0 00-2.551-2.42 2.489 2.489 0 00-2.413 2.558c.038 1.372-.038-1.374 0 0m5.725-.16a3.253 3.253 0 01-3.153 3.342 3.252 3.252 0 01-3.333-3.16 3.252 3.252 0 013.154-3.343 3.25 3.25 0 013.332 3.161c.05 1.793-.049-1.792 0 0m-31.082 167.895a2.488 2.488 0 002.437 2.535 2.49 2.49 0 00.093-4.977 2.488 2.488 0 00-2.53 2.442c-.026 1.372.025-1.373 0 0m5.729.107a3.253 3.253 0 01-3.307 3.191 3.253 3.253 0 01.122-6.504 3.252 3.252 0 013.185 3.313c-.033 1.792.034-1.794 0 0m67.743 3.062a2.489 2.489 0 002.348 2.615 2.484 2.484 0 002.604-2.357 2.487 2.487 0 00-2.347-2.614 2.486 2.486 0 00-2.605 2.356c-.071 1.37.072-1.371 0 0m5.712.299a3.248 3.248 0 01-3.405 3.079 3.25 3.25 0 01-3.066-3.417 3.248 3.248 0 013.403-3.08 3.253 3.253 0 013.068 3.418c-.093 1.791.093-1.791 0 0M106.743 366.882a2.49 2.49 0 002.438 2.534 2.489 2.489 0 00.093-4.977 2.49 2.49 0 00-2.531 2.443c-.025 1.372.026-1.373 0 0m5.73.107a3.254 3.254 0 01-3.306 3.192 3.255 3.255 0 01-3.185-3.313 3.252 3.252 0 013.305-3.192 3.252 3.252 0 013.186 3.313c-.032 1.793.034-1.794 0 0"/><path d="M192.446 136.622h-.64V85.449h7.958l27.981-31.45.472.442-28.171 31.664h-7.6v50.517zm30.456-43.589h-7.039v-.655h6.773l19.43-19.513.455.467-19.619 19.701zM126.787 391h-14.692l-4.163-9.802v-10.366h1.308v10.238l3.725 8.658h13.822V391zm72.172-66.359h-.651l.031-41.381 19.536-41.243.589.278-19.505 41.177v41.169zm68.177-39.035l-.558-.357 25.449-39.329.559.356-25.45 39.33zm22.963-109.428a2.487 2.487 0 002.346 2.615 2.484 2.484 0 002.605-2.357 2.488 2.488 0 00-2.346-2.615 2.486 2.486 0 00-2.605 2.357c-.071 1.371.071-1.371 0 0m5.711.299a3.25 3.25 0 01-3.404 3.079 3.252 3.252 0 01-3.067-3.417 3.25 3.25 0 013.404-3.08 3.253 3.253 0 013.067 3.418c-.093 1.79.093-1.791 0 0m33.3 1.653a2.487 2.487 0 002.348 2.615 2.483 2.483 0 002.603-2.356 2.486 2.486 0 00-2.346-2.615 2.486 2.486 0 00-2.605 2.356c-.071 1.372.072-1.371 0 0m5.711.299a3.249 3.249 0 01-3.404 3.079c-1.782-.093-3.158-1.628-3.067-3.418a3.25 3.25 0 013.404-3.079 3.251 3.251 0 013.067 3.418c-.093 1.791.093-1.792 0 0m1.441-7.456a2.489 2.489 0 002.348 2.616 2.49 2.49 0 00.257-4.973 2.489 2.489 0 00-2.605 2.357c-.071 1.371.072-1.37 0 0m5.711.299a3.25 3.25 0 01-3.404 3.08c-1.782-.094-3.158-1.628-3.067-3.418a3.249 3.249 0 013.404-3.079 3.251 3.251 0 013.067 3.417c-.093 1.79.093-1.791 0 0m-10.262 15.315a2.489 2.489 0 002.346 2.616 2.484 2.484 0 002.605-2.357 2.487 2.487 0 00-2.346-2.615 2.486 2.486 0 00-2.605 2.356c-.071 1.371.072-1.372 0 0m5.711.299a3.25 3.25 0 01-3.404 3.08 3.254 3.254 0 01-3.067-3.418 3.247 3.247 0 013.404-3.079 3.251 3.251 0 013.067 3.417c-.093 1.79.093-1.791 0 0"/><path d="M266.486 218.596l-.558-.357 25.449-39.329.558.357-25.449 39.329zm9.092 0l-.548-.354 25.035-39.332h28.281v.656h-27.925l-24.843 39.03z"/><path d="M296.406 199.078l-.57-.326 7.33-13.321 28.431-.015v.666l-28.049.015-7.142 12.981zm42.343-30.577h-.65v-31.228h-49.415v-.651h50.065v31.879z"/></g><path d="M354.5 59C204.555 59 83 118.098 83 191s121.555 132 271.5 132S626 263.902 626 191 504.445 59 354.5 59z" fill="#1F284F" fill-opacity=".765" filter="url(#b)"/></g></svg>